<svg width="90" height="90" viewBox="0 0 90 90" fill="none" xmlns="http://www.w3.org/2000/svg">
<path d="M89.4496 13.7661C89.3759 13.5118 89.2353 13.2821 89.0423 13.101C88.8493 12.9199 88.6111 12.7941 88.3527 12.7367L79.3035 10.6923L77.2591 1.64306C77.201 1.38536 77.0748 1.14798 76.8937 0.955697C76.7125 0.763415 76.4831 0.62328 76.2293 0.549923C75.9755 0.476565 75.7067 0.472674 75.4509 0.538655C75.1951 0.604636 74.9617 0.738071 74.7751 0.92503L64.3674 11.3344C55.5603 6.01994 45.1126 4.11289 34.9959 5.97314C24.8792 7.83339 15.7932 13.3323 9.45272 21.432C3.1122 29.5318 -0.0443417 39.6722 0.57879 49.9396C1.20192 60.2071 5.56162 69.8913 12.8351 77.1649C20.1087 84.4384 29.7929 88.7981 40.0604 89.4212C50.3278 90.0443 60.4682 86.8878 68.568 80.5473C76.6677 74.2068 82.1666 65.1208 84.0269 55.0041C85.8871 44.8874 83.9801 34.4397 78.6656 25.6326L89.0775 15.2207C89.2639 15.0336 89.3967 14.8 89.4621 14.5442C89.5275 14.2883 89.5232 14.0197 89.4496 13.7661ZM81.7664 47.3937C81.7652 56.014 78.9193 64.393 73.6702 71.2309C68.4211 78.0687 61.0621 82.9832 52.7349 85.212C44.4077 87.4408 35.5778 86.8593 27.6148 83.5577C19.6518 80.2561 13.0009 74.4189 8.6939 66.9517C4.38687 59.4845 2.66442 50.8046 3.79376 42.2586C4.9231 33.7126 8.8411 25.7782 14.94 19.6861C21.0388 13.594 28.9777 9.68485 37.5249 8.56503C46.0722 7.44522 54.7501 9.17733 62.2125 13.4927L57.4327 18.2725C57.3916 18.3193 57.3535 18.3686 57.3188 18.4202C50.417 14.9065 42.4884 13.9697 34.9578 15.7782C27.4273 17.5868 20.7888 22.022 16.2355 28.2868C11.6822 34.5516 9.51273 42.235 10.1171 49.956C10.7214 57.6771 14.0599 64.9294 19.5325 70.4094C25.005 75.8894 32.2528 79.2378 39.973 79.8526C47.6933 80.4675 55.3796 78.3085 61.6506 73.7637C67.9215 69.219 72.3658 62.5865 74.1846 55.0584C76.0034 47.5303 75.0774 39.6004 71.5731 32.6939C71.6273 32.6556 71.6789 32.6136 71.7275 32.5682L76.5073 27.7883C79.9591 33.7451 81.7735 40.5091 81.7664 47.3937ZM68.069 32.4475C71.6952 38.6378 72.9413 45.9374 71.5741 52.9801C70.2069 60.0228 66.3202 66.3259 60.6412 70.7099C54.9623 75.0938 47.8805 77.258 40.7211 76.7975C33.5617 76.337 26.8155 73.2833 21.745 68.2079C16.6745 63.1326 13.6273 56.3834 13.1737 49.2236C12.7201 42.0638 14.8911 34.984 19.2805 29.3093C23.6699 23.6346 29.9767 19.7539 37.0208 18.3935C44.0648 17.0331 51.3631 18.2862 57.5499 21.9184L59.105 28.8067L57.6132 30.2985C53.1646 26.3921 47.3712 24.3687 41.4579 24.6563C35.5446 24.9439 29.9749 27.5199 25.9264 31.8396C21.8779 36.1593 19.6679 41.8841 19.7638 47.8037C19.8597 53.7232 22.2539 59.3735 26.4402 63.5598C30.6265 67.7461 36.2768 70.1403 42.1963 70.2362C48.1159 70.3321 53.8407 68.1221 58.1604 64.0736C62.4801 60.0251 65.0561 54.4554 65.3437 48.5421C65.6313 42.6288 63.608 36.8354 59.7015 32.3868L61.1933 30.895L68.069 32.4475ZM48.9555 47.3937C48.9607 48.8052 48.4972 50.1785 47.6376 51.2981C46.778 52.4178 45.5711 53.2203 44.2061 53.5799C42.8412 53.9394 41.3955 53.8357 40.0959 53.2849C38.7962 52.7341 37.7163 51.7674 37.0254 50.5365C36.3345 49.3056 36.0718 47.8802 36.2786 46.4839C36.4853 45.0876 37.1498 43.7994 38.1677 42.8215C39.1856 41.8437 40.4994 41.2314 41.9028 41.0808C43.3063 40.9302 44.72 41.2498 45.9222 41.9895L41.5617 46.35C41.4207 46.4862 41.3083 46.6492 41.2309 46.8294C41.1536 47.0095 41.1129 47.2033 41.1112 47.3993C41.1096 47.5954 41.147 47.7898 41.2212 47.9713C41.2955 48.1527 41.4052 48.3176 41.5439 48.4562C41.6825 48.5948 41.8474 48.7044 42.0289 48.7786C42.2104 48.8528 42.4048 48.8901 42.6009 48.8884C42.7969 48.8866 42.9907 48.8459 43.1708 48.7684C43.3509 48.691 43.5138 48.5785 43.65 48.4374L48.0105 44.0769C48.6279 45.0731 48.9551 46.2217 48.9555 47.3937ZM48.0476 39.8641C46.1452 38.4861 43.7935 37.8756 41.461 38.1541C39.1286 38.4326 36.9867 39.5797 35.4623 41.3669C33.9378 43.154 33.1427 45.45 33.2354 47.7971C33.3281 50.1443 34.3019 52.3704 35.9625 54.0318C37.6232 55.6931 39.8489 56.6677 42.196 56.7614C44.5432 56.855 46.8395 56.0609 48.6272 54.5371C50.415 53.0134 51.563 50.872 51.8424 48.5397C52.1219 46.2073 51.5123 43.8553 50.1351 41.9524L57.609 34.4784C60.9578 38.369 62.6681 43.4062 62.3804 48.5314C62.0927 53.6567 59.8295 58.4709 56.0664 61.9622C52.3032 65.4536 47.3332 67.3503 42.2008 67.2536C37.0684 67.157 32.1733 65.0746 28.5442 61.4441C24.9151 57.8135 22.8347 52.9176 22.7402 47.7851C22.6456 42.6527 24.5443 37.6834 28.0372 33.9217C31.53 30.16 36.3451 27.8987 41.4705 27.6131C46.5959 27.3275 51.6324 29.0398 55.5216 32.3902L48.0476 39.8641ZM75.7598 24.3593L70.218 29.9003L69.3869 29.7129L69.3548 29.7053L61.9594 28.0406L60.0955 19.7862L74.9725 4.90669L76.6322 12.2524C76.6937 12.5247 76.8312 12.774 77.0286 12.9714C77.226 13.1688 77.4753 13.3063 77.7476 13.3678L85.0933 15.0275L75.7598 24.3593Z" fill="#EB3F57"/>
</svg>
