<svg width="90" height="90" viewBox="0 0 90 90" fill="none" xmlns="http://www.w3.org/2000/svg">
<path d="M85.5 0H4.5C3.30762 0.00356114 2.1651 0.47881 1.32195 1.32195C0.47881 2.1651 0.00356114 3.30762 0 4.5V60C0.00356114 61.1924 0.47881 62.3349 1.32195 63.1781C2.1651 64.0212 3.30762 64.4964 4.5 64.5H20.115C20.1724 64.6953 20.1509 64.9054 20.055 65.085L16.275 71.37C15.7584 72.2328 15.5456 73.2437 15.6707 74.2415C15.7958 75.2393 16.2514 76.1664 16.965 76.875L22.125 82.035C22.8336 82.7486 23.7607 83.2042 24.7585 83.3293C25.7563 83.4544 26.7672 83.2416 27.63 82.725L33.915 78.945C34.0351 78.8826 34.168 78.8488 34.3032 78.8462C34.4385 78.8436 34.5726 78.8723 34.695 78.93C34.817 78.977 34.9265 79.0515 35.015 79.1478C35.1034 79.2441 35.1685 79.3595 35.205 79.485L36.975 86.595C37.2191 87.5678 37.7811 88.4312 38.5719 89.0481C39.3628 89.665 40.337 90.0001 41.34 90H48.66C49.663 90.0001 50.6372 89.665 51.4281 89.0481C52.2189 88.4312 52.7809 87.5678 53.025 86.595L54.795 79.485C54.8347 79.3546 54.9041 79.2353 54.9978 79.1364C55.0915 79.0374 55.207 78.9617 55.335 78.915C55.4543 78.8635 55.5836 78.8394 55.7134 78.8446C55.8432 78.8498 55.9702 78.8841 56.085 78.945L62.37 82.725C63.2338 83.2383 64.2439 83.4491 65.2408 83.3241C66.2378 83.1992 67.1646 82.7456 67.875 82.035L73.035 76.875C73.7486 76.1664 74.2042 75.2393 74.3293 74.2415C74.4544 73.2437 74.2416 72.2328 73.725 71.37L69.945 65.085C69.8565 64.9032 69.8352 64.696 69.885 64.5H85.5C86.6924 64.4964 87.8349 64.0212 88.678 63.1781C89.5212 62.3349 89.9964 61.1924 90 60V4.5C89.9964 3.30762 89.5212 2.1651 88.678 1.32195C87.8349 0.47881 86.6924 0.00356114 85.5 0ZM78 57.66C77.9997 57.995 77.8874 58.3203 77.6807 58.584C77.4741 58.8477 77.1852 59.0346 76.86 59.115L69.75 60.885C69.1653 61.0406 68.625 61.3304 68.1719 61.7314C67.7188 62.1324 67.3655 62.6335 67.14 63.195C66.9104 63.7469 66.8126 64.3446 66.8543 64.9408C66.8959 65.5371 67.0759 66.1154 67.38 66.63L71.145 72.915C71.3205 73.2004 71.3939 73.5369 71.353 73.8694C71.3121 74.2019 71.1594 74.5107 70.92 74.745L65.745 79.92C65.5107 80.1594 65.2019 80.3121 64.8694 80.353C64.5369 80.3939 64.2004 80.3205 63.915 80.145L57.63 76.38C57.11 76.0798 56.5279 75.903 55.9287 75.8633C55.3296 75.8235 54.7293 75.922 54.1742 76.151C53.6191 76.38 53.124 76.7334 52.7271 77.184C52.3302 77.6347 52.0421 78.1704 51.885 78.75L50.115 85.86C50.0346 86.1852 49.8477 86.4741 49.584 86.6807C49.3203 86.8874 48.995 86.9997 48.66 87H41.34C41.005 86.9997 40.6797 86.8874 40.416 86.6807C40.1523 86.4741 39.9654 86.1852 39.885 85.86L38.115 78.75C37.9594 78.1653 37.6696 77.625 37.2686 77.1719C36.8676 76.7188 36.3665 76.3655 35.805 76.14C35.329 75.9443 34.8197 75.8424 34.305 75.84C33.6225 75.8379 32.9528 76.0248 32.37 76.38L26.085 80.145C25.7996 80.3205 25.4631 80.3939 25.1306 80.353C24.7981 80.3121 24.4893 80.1594 24.255 79.92L19.08 74.745C18.8406 74.5107 18.6879 74.2019 18.647 73.8694C18.6061 73.5369 18.6795 73.2004 18.855 72.915L22.62 66.63C22.9202 66.11 23.097 65.5279 23.1367 64.9287C23.1765 64.3296 23.078 63.7293 22.849 63.1742C22.62 62.6191 22.2666 62.124 21.816 61.7271C21.3653 61.3302 20.8296 61.0421 20.25 60.885L13.14 59.115C12.8148 59.0346 12.5259 58.8477 12.3193 58.584C12.1126 58.3203 12.0003 57.995 12 57.66V50.34C12.0003 50.005 12.1126 49.6797 12.3193 49.416C12.5259 49.1523 12.8148 48.9654 13.14 48.885L20.25 47.115C20.8347 46.9594 21.375 46.6696 21.8281 46.2686C22.2812 45.8676 22.6345 45.3665 22.86 44.805C23.0896 44.2531 23.1874 43.6554 23.1457 43.0592C23.1041 42.4629 22.9241 41.8846 22.62 41.37L18.855 35.085C18.6795 34.7996 18.6061 34.4631 18.647 34.1306C18.6879 33.7981 18.8406 33.4893 19.08 33.255L24.255 28.08C24.4893 27.8406 24.7981 27.6879 25.1306 27.647C25.4631 27.6061 25.7996 27.6795 26.085 27.855L32.37 31.62C32.89 31.9202 33.4721 32.097 34.0713 32.1367C34.6704 32.1765 35.2707 32.078 35.8258 31.849C36.3809 31.62 36.876 31.2666 37.2729 30.816C37.6698 30.3653 37.9579 29.8296 38.115 29.25L39.885 22.14C39.9654 21.8148 40.1523 21.5259 40.416 21.3193C40.6797 21.1126 41.005 21.0003 41.34 21H48.66C48.995 21.0003 49.3203 21.1126 49.584 21.3193C49.8477 21.5259 50.0346 21.8148 50.115 22.14L51.885 29.25C52.0406 29.8347 52.3304 30.375 52.7314 30.8281C53.1324 31.2812 53.6335 31.6345 54.195 31.86C54.7469 32.0896 55.3446 32.1874 55.9408 32.1457C56.5371 32.1041 57.1154 31.9241 57.63 31.62L63.915 27.855C64.2015 27.6834 64.5372 27.6124 64.8687 27.6531C65.2001 27.6939 65.5086 27.8441 65.745 28.08L70.92 33.255C71.1594 33.4893 71.3121 33.7981 71.353 34.1306C71.3939 34.4631 71.3205 34.7996 71.145 35.085L67.38 41.37C67.0798 41.89 66.903 42.4721 66.8633 43.0713C66.8235 43.6704 66.922 44.2707 67.151 44.8258C67.38 45.3809 67.7334 45.876 68.184 46.2729C68.6347 46.6698 69.1704 46.9579 69.75 47.115L76.86 48.885C77.1852 48.9654 77.4741 49.1523 77.6807 49.416C77.8874 49.6797 77.9997 50.005 78 50.34V57.66ZM87 60C87 60.3978 86.842 60.7794 86.5607 61.0607C86.2794 61.342 85.8978 61.5 85.5 61.5H78.825C79.4878 61.1017 80.0364 60.5389 80.4175 59.866C80.7986 59.1932 80.9992 58.4333 81 57.66V50.34C81.0001 49.337 80.665 48.3628 80.0481 47.5719C79.4312 46.7811 78.5678 46.2191 77.595 45.975L70.485 44.205C70.2743 44.1478 70.0924 44.0141 69.975 43.83C69.96 43.785 69.93 43.71 69.915 43.665C69.8635 43.5457 69.8394 43.4164 69.8446 43.2866C69.8498 43.1568 69.8841 43.0298 69.945 42.915L73.725 36.63C74.2416 35.7672 74.4544 34.7563 74.3293 33.7585C74.2042 32.7607 73.7486 31.8336 73.035 31.125L67.875 25.965C67.1664 25.2514 66.2393 24.7958 65.2415 24.6707C64.2437 24.5456 63.2328 24.7584 62.37 25.275L56.085 29.055C55.9649 29.1174 55.832 29.1512 55.6968 29.1538C55.5615 29.1564 55.4274 29.1277 55.305 29.07C55.183 29.023 55.0735 28.9485 54.985 28.8522C54.8966 28.7559 54.8315 28.6405 54.795 28.515L53.025 21.405C52.7809 20.4322 52.2189 19.5688 51.4281 18.9519C50.6372 18.335 49.663 17.9999 48.66 18H41.34C40.337 17.9999 39.3628 18.335 38.5719 18.9519C37.7811 19.5688 37.2191 20.4322 36.975 21.405L35.205 28.515C35.1653 28.6454 35.0959 28.7647 35.0022 28.8636C34.9085 28.9626 34.793 29.0383 34.665 29.085C34.5457 29.1365 34.4164 29.1606 34.2866 29.1554C34.1568 29.1502 34.0298 29.1159 33.915 29.055L27.63 25.275C26.7663 24.7617 25.7561 24.5509 24.7592 24.6759C23.7622 24.8008 22.8354 25.2544 22.125 25.965L16.965 31.125C16.2514 31.8336 15.7958 32.7607 15.6707 33.7585C15.5456 34.7563 15.7584 35.7672 16.275 36.63L20.055 42.915C20.1174 43.0351 20.1512 43.168 20.1538 43.3032C20.1564 43.4385 20.1277 43.5726 20.07 43.695C20.023 43.817 19.9485 43.9265 19.8522 44.015C19.7559 44.1034 19.6405 44.1685 19.515 44.205L12.405 45.975C11.4322 46.2191 10.5688 46.7811 9.95186 47.5719C9.33496 48.3628 8.99994 49.337 9 50.34V57.66C9.00075 58.4333 9.20142 59.1932 9.58251 59.866C9.96361 60.5389 10.5122 61.1017 11.175 61.5H4.5C4.10218 61.5 3.72064 61.342 3.43934 61.0607C3.15804 60.7794 3 60.3978 3 60V15H87V60ZM87 12H3V4.5C3 4.10218 3.15804 3.72064 3.43934 3.43934C3.72064 3.15804 4.10218 3 4.5 3H85.5C85.8978 3 86.2794 3.15804 86.5607 3.43934C86.842 3.72064 87 4.10218 87 4.5V12Z" fill="#454654"/>
<path d="M6 6H9V9H6V6Z" fill="#EB3F57"/>
<path d="M12 6H15V9H12V6Z" fill="#EB3F57"/>
<path d="M18 6H21V9H18V6Z" fill="#EB3F57"/>
<path d="M45 36C41.4399 36 37.9598 37.0557 34.9997 39.0335C32.0397 41.0114 29.7326 43.8226 28.3702 47.1117C27.0078 50.4008 26.6513 54.02 27.3459 57.5116C28.0404 61.0033 29.7547 64.2106 32.2721 66.7279C34.7894 69.2453 37.9967 70.9596 41.4884 71.6541C44.98 72.3487 48.5992 71.9922 51.8883 70.6298C55.1774 69.2675 57.9886 66.9603 59.9665 64.0003C61.9443 61.0402 63 57.5601 63 54C62.9948 49.2277 61.0968 44.6523 57.7222 41.2778C54.3477 37.9032 49.7723 36.0052 45 36ZM45 69C42.0333 69 39.1332 68.1203 36.6665 66.472C34.1997 64.8238 32.2771 62.4811 31.1418 59.7403C30.0065 56.9994 29.7094 53.9834 30.2882 51.0736C30.867 48.1639 32.2956 45.4912 34.3934 43.3934C36.4912 41.2956 39.1639 39.867 42.0737 39.2882C44.9834 38.7094 47.9994 39.0065 50.7403 40.1418C53.4812 41.2771 55.8238 43.1997 57.4721 45.6664C59.1203 48.1332 60 51.0333 60 54C59.9956 57.9769 58.4139 61.7897 55.6018 64.6018C52.7897 67.4139 48.9769 68.9956 45 69Z" fill="#EB3F57"/>
<path d="M43.5 52.5H46.5V55.5H43.5V52.5Z" fill="#EB3F57"/>
<path d="M49.5 52.5H52.5V55.5H49.5V52.5Z" fill="#454654"/>
<path d="M37.5 52.5H40.5V55.5H37.5V52.5Z" fill="#454654"/>
</svg>
