<svg width="98" height="98" viewBox="0 0 98 98" fill="none" xmlns="http://www.w3.org/2000/svg">
<path d="M92.875 0.25H5.125C3.83326 0.253858 2.59552 0.768711 1.68212 1.68212C0.768711 2.59552 0.253858 3.83326 0.25 5.125V65.25C0.253858 66.5417 0.768711 67.7795 1.68212 68.6929C2.59552 69.6063 3.83326 70.1211 5.125 70.125H22.0413C22.1034 70.3366 22.0801 70.5642 21.9762 70.7588L17.8813 77.5675C17.3216 78.5022 17.0911 79.5973 17.2266 80.6783C17.3621 81.7592 17.8557 82.7636 18.6287 83.5312L24.2188 89.1212C24.9864 89.8943 25.9908 90.3879 27.0717 90.5234C28.1527 90.6589 29.2479 90.4284 30.1825 89.8688L36.9912 85.7738C37.1213 85.7062 37.2653 85.6696 37.4118 85.6667C37.5584 85.6639 37.7037 85.695 37.8363 85.7575C37.9684 85.8084 38.087 85.8892 38.1829 85.9935C38.2787 86.0977 38.3492 86.2228 38.3887 86.3587L40.3062 94.0612C40.5706 95.1152 41.1796 96.0505 42.0363 96.7188C42.893 97.3871 43.9484 97.7501 45.035 97.75H52.965C54.0516 97.7501 55.107 97.3871 55.9637 96.7188C56.8205 96.0505 57.4294 95.1152 57.6937 94.0612L59.6112 86.3587C59.6542 86.2175 59.7294 86.0882 59.831 85.981C59.9325 85.8739 60.0575 85.7918 60.1963 85.7412C60.3255 85.6854 60.4656 85.6594 60.6062 85.665C60.7468 85.6706 60.8844 85.7078 61.0088 85.7738L67.8175 89.8688C68.7532 90.4248 69.8475 90.6532 70.9276 90.5178C72.0076 90.3824 73.0117 89.891 73.7812 89.1212L79.3712 83.5312C80.1443 82.7636 80.6379 81.7592 80.7734 80.6783C80.9089 79.5973 80.6784 78.5022 80.1188 77.5675L76.0238 70.7588C75.9278 70.5618 75.9048 70.3373 75.9587 70.125H92.875C94.1667 70.1211 95.4045 69.6063 96.3179 68.6929C97.2313 67.7795 97.7461 66.5417 97.75 65.25V5.125C97.7461 3.83326 97.2313 2.59552 96.3179 1.68212C95.4045 0.768711 94.1667 0.253858 92.875 0.25ZM84.75 62.715C84.7497 63.0779 84.628 63.4303 84.4041 63.716C84.1803 64.0016 83.8673 64.2042 83.515 64.2913L75.8125 66.2087C75.1791 66.3773 74.5937 66.6913 74.1029 67.1257C73.612 67.5601 73.2293 68.103 72.985 68.7113C72.7363 69.3091 72.6303 69.9567 72.6755 70.6026C72.7206 71.2485 72.9156 71.875 73.245 72.4325L77.3238 79.2412C77.5139 79.5504 77.5933 79.915 77.5491 80.2752C77.5048 80.6354 77.3394 80.9699 77.08 81.2238L71.4738 86.83C71.2199 87.0894 70.8854 87.2548 70.5252 87.2991C70.165 87.3433 69.8004 87.2639 69.4912 87.0738L62.6825 82.995C62.1191 82.6697 61.4886 82.4782 60.8395 82.4352C60.1904 82.3922 59.5401 82.4988 58.9387 82.7469C58.3373 82.995 57.801 83.3779 57.371 83.866C56.941 84.3542 56.6289 84.9346 56.4588 85.5625L54.5412 93.265C54.4542 93.6173 54.2516 93.9303 53.966 94.1541C53.6803 94.378 53.3279 94.4997 52.965 94.5H45.035C44.6721 94.4997 44.3197 94.378 44.034 94.1541C43.7484 93.9303 43.5458 93.6173 43.4588 93.265L41.5412 85.5625C41.3727 84.9291 41.0587 84.3437 40.6243 83.8529C40.1899 83.362 39.647 82.9793 39.0387 82.735C38.5231 82.523 37.9713 82.4126 37.4137 82.41C36.6744 82.4077 35.9488 82.6102 35.3175 82.995L28.5087 87.0738C28.1996 87.2639 27.835 87.3433 27.4748 87.2991C27.1146 87.2548 26.7801 87.0894 26.5263 86.83L20.92 81.2238C20.6606 80.9699 20.4952 80.6354 20.4509 80.2752C20.4067 79.915 20.4861 79.5504 20.6763 79.2412L24.755 72.4325C25.0803 71.8691 25.2718 71.2386 25.3148 70.5895C25.3578 69.9404 25.2512 69.2901 25.0031 68.6887C24.755 68.0873 24.3721 67.551 23.884 67.121C23.3958 66.691 22.8154 66.3789 22.1875 66.2087L14.485 64.2913C14.1327 64.2042 13.8197 64.0016 13.5959 63.716C13.372 63.4303 13.2503 63.0779 13.25 62.715V54.785C13.2503 54.4221 13.372 54.0697 13.5959 53.784C13.8197 53.4984 14.1327 53.2958 14.485 53.2088L22.1875 51.2912C22.8209 51.1227 23.4063 50.8087 23.8971 50.3743C24.388 49.9399 24.7707 49.397 25.015 48.7887C25.2637 48.1909 25.3697 47.5433 25.3245 46.8974C25.2794 46.2515 25.0844 45.625 24.755 45.0675L20.6763 38.2588C20.4861 37.9496 20.4067 37.585 20.4509 37.2248C20.4952 36.8646 20.6606 36.5301 20.92 36.2762L26.5263 30.67C26.7801 30.4106 27.1146 30.2452 27.4748 30.2009C27.835 30.1567 28.1996 30.2361 28.5087 30.4263L35.3175 34.505C35.8809 34.8303 36.5114 35.0218 37.1605 35.0648C37.8096 35.1078 38.4599 35.0012 39.0613 34.7531C39.6627 34.505 40.199 34.1221 40.629 33.634C41.059 33.1458 41.3711 32.5654 41.5412 31.9375L43.4588 24.235C43.5458 23.8827 43.7484 23.5697 44.034 23.3459C44.3197 23.122 44.6721 23.0003 45.035 23H52.965C53.3279 23.0003 53.6803 23.122 53.966 23.3459C54.2516 23.5697 54.4542 23.8827 54.5412 24.235L56.4588 31.9375C56.6273 32.5709 56.9413 33.1563 57.3757 33.6471C57.8101 34.138 58.353 34.5207 58.9613 34.765C59.5591 35.0137 60.2067 35.1197 60.8526 35.0745C61.4985 35.0294 62.125 34.8344 62.6825 34.505L69.4912 30.4263C69.8017 30.2404 70.1653 30.1634 70.5244 30.2076C70.8835 30.2517 71.2176 30.4145 71.4738 30.67L77.08 36.2762C77.3394 36.5301 77.5048 36.8646 77.5491 37.2248C77.5933 37.585 77.5139 37.9496 77.3238 38.2588L73.245 45.0675C72.9197 45.6309 72.7282 46.2614 72.6852 46.9105C72.6422 47.5596 72.7488 48.2099 72.9969 48.8113C73.245 49.4127 73.6279 49.949 74.116 50.379C74.6042 50.809 75.1846 51.1211 75.8125 51.2912L83.515 53.2088C83.8673 53.2958 84.1803 53.4984 84.4041 53.784C84.628 54.0697 84.7497 54.4221 84.75 54.785V62.715ZM94.5 65.25C94.5 65.681 94.3288 66.0943 94.024 66.399C93.7193 66.7038 93.306 66.875 92.875 66.875H85.6437C86.3618 66.4435 86.9561 65.8338 87.3689 65.1049C87.7818 64.376 87.9992 63.5527 88 62.715V54.785C88.0001 53.6984 87.6371 52.643 86.9688 51.7863C86.3005 50.9295 85.3652 50.3206 84.3112 50.0563L76.6087 48.1387C76.3805 48.0768 76.1835 47.9319 76.0563 47.7325C76.04 47.6837 76.0075 47.6025 75.9912 47.5537C75.9354 47.4245 75.9094 47.2844 75.915 47.1438C75.9206 47.0032 75.9578 46.8656 76.0238 46.7412L80.1188 39.9325C80.6784 38.9978 80.9089 37.9027 80.7734 36.8217C80.6379 35.7408 80.1443 34.7364 79.3712 33.9688L73.7812 28.3787C73.0136 27.6057 72.0092 27.1121 70.9283 26.9766C69.8473 26.8411 68.7522 27.0716 67.8175 27.6313L61.0088 31.7263C60.8787 31.7938 60.7347 31.8304 60.5882 31.8333C60.4416 31.8361 60.2963 31.805 60.1637 31.7425C60.0316 31.6916 59.913 31.6108 59.8171 31.5065C59.7213 31.4023 59.6508 31.2772 59.6112 31.1413L57.6937 23.4388C57.4294 22.3849 56.8205 21.4495 55.9637 20.7812C55.107 20.1129 54.0516 19.7499 52.965 19.75H45.035C43.9484 19.7499 42.893 20.1129 42.0363 20.7812C41.1796 21.4495 40.5706 22.3849 40.3062 23.4388L38.3887 31.1413C38.3458 31.2825 38.2706 31.4118 38.169 31.5189C38.0675 31.6261 37.9425 31.7082 37.8037 31.7587C37.6745 31.8146 37.5344 31.8406 37.3938 31.835C37.2532 31.8294 37.1156 31.7922 36.9912 31.7263L30.1825 27.6313C29.2468 27.0752 28.1524 26.8468 27.0724 26.9822C25.9924 27.1176 24.9883 27.609 24.2188 28.3787L18.6287 33.9688C17.8557 34.7364 17.3621 35.7408 17.2266 36.8217C17.0911 37.9027 17.3216 38.9978 17.8813 39.9325L21.9762 46.7412C22.0438 46.8713 22.0804 47.0153 22.0833 47.1618C22.0861 47.3084 22.055 47.4537 21.9925 47.5863C21.9416 47.7184 21.8608 47.837 21.7565 47.9329C21.6523 48.0287 21.5272 48.0992 21.3913 48.1387L13.6888 50.0563C12.6349 50.3206 11.6995 50.9295 11.0312 51.7863C10.3629 52.643 9.99994 53.6984 10 54.785V62.715C10.0008 63.5527 10.2182 64.376 10.6311 65.1049C11.0439 65.8338 11.6382 66.4435 12.3562 66.875H5.125C4.69402 66.875 4.2807 66.7038 3.97595 66.399C3.67121 66.0943 3.5 65.681 3.5 65.25V16.5H94.5V65.25ZM94.5 13.25H3.5V5.125C3.5 4.69402 3.67121 4.2807 3.97595 3.97595C4.2807 3.67121 4.69402 3.5 5.125 3.5H92.875C93.306 3.5 93.7193 3.67121 94.024 3.97595C94.3288 4.2807 94.5 4.69402 94.5 5.125V13.25Z" fill="white"/>
<path d="M6.75 6.75H10V10H6.75V6.75Z" fill="#EB3F57"/>
<path d="M13.25 6.75H16.5V10H13.25V6.75Z" fill="#EB3F57"/>
<path d="M19.75 6.75H23V10H19.75V6.75Z" fill="#EB3F57"/>
<path d="M49 39.25C45.1433 39.25 41.3731 40.3937 38.1664 42.5363C34.9596 44.679 32.4603 47.7245 30.9843 51.2877C29.5084 54.8508 29.1223 58.7716 29.8747 62.5543C30.6271 66.3369 32.4843 69.8115 35.2114 72.5386C37.9385 75.2657 41.4131 77.1229 45.1957 77.8753C48.9784 78.6277 52.8992 78.2416 56.4623 76.7657C60.0255 75.2897 63.071 72.7904 65.2136 69.5836C67.3563 66.3769 68.5 62.6067 68.5 58.75C68.4944 53.58 66.4381 48.6233 62.7824 44.9676C59.1266 41.3118 54.17 39.2556 49 39.25ZM49 75C45.786 75 42.6443 74.047 39.972 72.2614C37.2997 70.4758 35.2169 67.9379 33.9869 64.9686C32.757 61.9993 32.4352 58.732 33.0622 55.5798C33.6892 52.4276 35.2369 49.5321 37.5095 47.2595C39.7821 44.9869 42.6776 43.4392 45.8298 42.8122C48.982 42.1852 52.2493 42.507 55.2186 43.737C58.1879 44.9669 60.7258 47.0497 62.5114 49.722C64.2969 52.3943 65.25 55.5361 65.25 58.75C65.2453 63.0583 63.5317 67.1888 60.4853 70.2353C57.4388 73.2817 53.3083 74.9953 49 75Z" fill="#EB3F57"/>
<path d="M47.375 57.125H50.625V60.375H47.375V57.125Z" fill="#EB3F57"/>
<path d="M53.875 57.125H57.125V60.375H53.875V57.125Z" fill="white"/>
<path d="M40.875 57.125H44.125V60.375H40.875V57.125Z" fill="white"/>
</svg>
