<svg width="48.000000" height="48.000000" viewBox="0 0 48 48" fill="none" xmlns="http://www.w3.org/2000/svg" xmlns:xlink="http://www.w3.org/1999/xlink">
	<desc>
			Created with Pixso.
	</desc>
	<defs/>
	<path id="Ellipse 132" d="M24 12C24 18.6274 18.6289 24 12 24C5.37109 24 0 18.6274 0 12C0 5.37259 5.37109 0 12 0C18.6289 0 24 5.37259 24 12Z" fill="#404040" fill-opacity="1.000000" fill-rule="nonzero"/>
	<path id="Ellipse 133" d="M48 12C48 18.6274 42.6289 24 36 24C29.3711 24 24 18.6274 24 12C24 5.37259 29.3711 0 36 0C42.6289 0 48 5.37259 48 12Z" fill="#FFD11A" fill-opacity="1.000000" fill-rule="nonzero"/>
	<path id="Ellipse 134" d="M48 36C48 42.6274 42.6289 48 36 48C29.3711 48 24 42.6274 24 36C24 29.3726 29.3711 24 36 24C42.6289 24 48 29.3726 48 36Z" fill="#404040" fill-opacity="1.000000" fill-rule="nonzero"/>
	<path id="Ellipse 135" d="M24 36C24 42.6274 18.6289 48 12 48C5.37109 48 0 42.6274 0 36C0 29.3726 5.37109 24 12 24C18.6289 24 24 29.3726 24 36Z" fill="#FFD11A" fill-opacity="1.000000" fill-rule="nonzero"/>
</svg>
