<svg width="64.000000" height="64.000000" viewBox="0 0 64 64" fill="none" xmlns="http://www.w3.org/2000/svg" xmlns:xlink="http://www.w3.org/1999/xlink">
	<desc>
			Created with Pixso.
	</desc>
	<defs/>
	<path id="Rectangle 79" d="M58.8047 5.19556C66.3008 12.6902 65.5898 25.551 57.2969 33.8439L42.2188 48.9219L15.0781 21.7815L30.1562 6.70337C38.4492 -1.58948 51.3086 -2.29907 58.8047 5.19556Z" fill="#FFD11A" fill-opacity="1.000000" fill-rule="nonzero"/>
	<path id="Ellipse 103" d="M27.1406 63.9999L0 36.8594C8.32812 28.532 21.1523 27.8569 28.6484 35.3516C36.1445 42.8462 35.4688 55.6725 27.1406 63.9999Z" fill="#404040" fill-opacity="1.000000" fill-rule="nonzero"/>
	<path id="Ellipse 104" d="M55.7891 62.4921L28.6484 35.3516C36.9766 27.0242 49.8008 26.3491 57.2969 33.8438C64.793 41.3384 64.1172 54.1647 55.7891 62.4921Z" fill="#FFD11A" fill-opacity="1.000000" fill-rule="nonzero"/>
	<path id="Ellipse 105" d="M28.6484 35.3517L1.50781 8.21118C9.83594 -0.116211 22.6602 -0.79126 30.1562 6.70337C37.6523 14.198 36.9766 27.0243 28.6484 35.3517Z" fill="#FFD11A" fill-opacity="1.000000" fill-rule="nonzero"/>
</svg>
