<svg width="48.000000" height="48.000000" viewBox="0 0 48 48" fill="none" xmlns="http://www.w3.org/2000/svg" xmlns:xlink="http://www.w3.org/1999/xlink">
	<desc>
			Created with Pixso.
	</desc>
	<defs/>
	<path id="Union" d="M0 16.5C0 23.1558 3.94141 28.8912 9.61719 31.5L0 31.5C0 40.6127 7.38672 48 16.5 48C23.1562 48 28.8906 44.0591 31.5 38.3835L31.5 48C40.6133 48 48 40.6127 48 31.5C48 24.8442 44.0586 19.1088 38.3828 16.5L48 16.5C48 7.3873 40.6133 0 31.5 0C24.8438 0 19.1094 3.94089 16.5 9.61655L16.5 0C7.38672 0 0 7.3873 0 16.5Z" fill="#404040" fill-opacity="1.000000" fill-rule="nonzero"/>
	<path id="Ellipse 30" d="M31.5 24.0001C31.5 28.1423 28.1406 31.5001 24 31.5001C19.8594 31.5001 16.5 28.1423 16.5 24.0001C16.5 19.858 19.8594 16.5001 24 16.5001C28.1406 16.5001 31.5 19.858 31.5 24.0001Z" fill="#FFD11A" fill-opacity="1.000000" fill-rule="nonzero"/>
</svg>
