<svg width="176.505127" height="223.765137" viewBox="0 0 176.505 223.765" fill="none" xmlns="http://www.w3.org/2000/svg" xmlns:xlink="http://www.w3.org/1999/xlink">
	<path id="Stroke 1" d="M45.65 49.68L49.13 43.57L134.8 92.29L131.32 98.4L45.65 49.68Z" stroke="#010202" stroke-opacity="1.000000" stroke-width="1.000000"/>
	<path id="Stroke 2" d="M34.63 1.23L151.21 223.06" stroke="#010202" stroke-opacity="1.000000" stroke-width="1.000000"/>
	<path id="Fill 4" d="M48.83 113.52C24.54 112.67 5.54 92.32 6.38 68.06C7.23 43.8 27.61 24.82 51.9 25.67C76.19 26.52 95.2 46.87 94.35 71.13C93.5 95.39 73.13 114.37 48.83 113.52Z" fill="#010202" fill-opacity="1.000000" fill-rule="evenodd"/>
	<mask id="mask0_115" mask-type="alpha" maskUnits="userSpaceOnUse" x="106.938477" y="144.506348" width="64.595947" height="64.515381">
		<path id="Clip 7" d="M171.53 146.68L169.35 209.02L106.93 206.84L109.11 144.5L171.53 146.68Z" fill="#000000" fill-opacity="1.000000" fill-rule="evenodd"/>
	</mask>
	<path id="Stroke 9" d="M84.88 96.86L47.5 25.72" stroke="#FEFEFE" stroke-opacity="1.000000" stroke-width="1.000000"/>
	<path id="Stroke 13" d="M13.06 200L9.75 193.79L96.83 147.64L100.13 153.85L13.06 200Z" stroke="#010202" stroke-opacity="1.000000" stroke-width="1.000000"/>
	<path id="Stroke 15" d="M65.5 133.78C65.67 128.8 69.86 124.9 74.85 125.07C79.84 125.25 83.75 129.43 83.57 134.41C83.4 139.4 79.21 143.3 74.22 143.12C69.23 142.95 65.32 138.77 65.5 133.78Z" stroke="#010202" stroke-opacity="1.000000" stroke-width="1.000000"/>
</svg>
