<svg width="128" height="7" viewBox="0 0 128 7" fill="none" xmlns="http://www.w3.org/2000/svg">
<g id="Underline thin marker brush">
<path id="Vector" d="M117.851 1.46801C115.074 1.33338 112.25 1.19874 109.426 1.06411C108.516 1.01923 107.559 1.01926 106.65 0.97438C104.639 0.929504 102.629 0.884606 100.618 0.83973C99.5172 0.794854 98.3684 0.794876 97.2674 0.75C96.9324 0.75 96.5973 0.75 96.3101 0.75C95.5921 0.75 94.874 0.75 94.1081 0.75C90.8053 0.75 87.5024 0.75 84.1995 0.75C83.4336 0.75 82.6199 0.749989 81.854 0.794865C79.8914 0.839741 77.9767 0.839747 76.0141 0.884623C73.8122 0.929499 71.6103 0.929504 69.4084 0.97438C65.8661 1.06413 62.276 1.15387 58.7338 1.24363C56.6755 1.2885 54.6172 1.33337 52.5589 1.37825C49.0167 1.51288 45.4744 1.64752 41.9322 1.78214C39.9696 1.8719 38.0549 1.91677 36.0923 2.00653C32.4065 2.18603 28.7686 2.4104 25.0827 2.58991C23.1202 2.67966 21.1576 2.76942 19.195 2.90405C15.557 3.1733 11.8712 3.48744 8.23327 3.80157C7.46738 3.84644 6.65363 3.93618 5.83987 3.98106C4.26024 4.11568 2.6806 4.29521 1.10096 4.47471C1.00522 4.47471 0.909489 4.51958 0.813753 4.51958C0.622282 4.56445 0.478678 4.65422 0.335075 4.78885C0.143603 4.96835 0 5.2376 0 5.50685C0 5.77611 0.0957356 6.04536 0.335075 6.22486C0.526546 6.40437 0.861621 6.539 1.10096 6.539C3.01567 6.35949 4.88252 6.13512 6.79723 5.95562C8.56834 5.82099 10.3395 5.68635 12.1106 5.55172C14.0253 5.41709 15.94 5.23759 17.9026 5.10296C18.6685 5.05808 19.4343 4.96835 20.2481 4.92347C23.2638 4.78884 26.2316 4.60934 29.2472 4.47471C31.1141 4.38496 32.9809 4.29519 34.8478 4.20544C35.6137 4.16056 36.3795 4.11569 37.1454 4.07081C40.1132 3.98106 43.081 3.84643 46.0488 3.75668C47.8678 3.7118 49.6389 3.62206 51.4579 3.57719C52.0802 3.57719 52.6546 3.5323 53.2769 3.5323C56.484 3.44254 59.6912 3.39767 62.8983 3.30792C64.6694 3.26304 66.4884 3.21817 68.2595 3.17329C68.8818 3.17329 69.552 3.12843 70.1742 3.12843C73.4771 3.08355 76.78 3.08355 80.1307 3.03867C82.1891 3.03867 84.2474 2.9938 86.3057 2.9938C89.8 2.9938 93.3423 2.99379 96.8366 3.03867C97.5068 3.03867 98.2248 3.08353 98.8949 3.08353C100.858 3.12841 102.772 3.1733 104.735 3.26305C106.171 3.30793 107.655 3.3528 109.091 3.39767C110.144 3.44255 111.149 3.48742 112.202 3.5323C115.218 3.66692 118.281 3.84644 121.297 4.02595C122.063 4.07083 122.829 4.1157 123.595 4.16057C124.408 4.20545 125.27 4.25033 126.084 4.34009C126.227 4.34009 126.323 4.38494 126.467 4.42982C126.802 4.47469 127.089 4.4747 127.376 4.29519C127.664 4.16057 127.855 3.89131 127.951 3.62205C128.142 3.03866 127.759 2.41041 127.089 2.23091C126.515 2.09628 125.94 2.05138 125.414 1.96163C125.031 1.91676 124.648 1.8719 124.265 1.8719C123.499 1.78215 122.733 1.78214 122.015 1.69239C120.675 1.60263 119.287 1.55776 117.851 1.46801Z" fill="#1A75FF"/>
</g>
</svg>
