<svg aria-hidden="true" xmlns="http://www.w3.org/2000/svg" xmlns:xlink="http://www.w3.org/1999/xlink"><symbol viewBox="0 0 78 78" id="UI_Data_Information" xmlns="http://www.w3.org/2000/svg">
<path d="M74.1002 0H3.90016C1.67813 0.0707019 -0.066939 1.92745 0.000163101 4.1496V73.8504C-0.066939 76.0725 1.67813 77.9293 3.90016 78H74.1002C76.3222 77.9293 78.0673 76.0725 78.0002 73.8504V4.1496C78.0673 1.92745 76.3222 0.0707019 74.1002 0ZM3.90016 2.6H74.1002C74.8788 2.68467 75.4521 3.36815 75.4002 4.1496V10.4H2.60016V4.1496C2.54819 3.36815 3.12157 2.68467 3.90016 2.6ZM74.1002 75.4H3.90016C3.12157 75.3153 2.54819 74.6319 2.60016 73.8504V13H75.4002V73.8504C75.4619 74.635 74.8836 75.3244 74.1002 75.4Z"/>
<path d="M6.50001 7.80001C7.21798 7.80001 7.80001 7.21798 7.80001 6.50001C7.80001 5.78204 7.21798 5.20001 6.50001 5.20001C5.78204 5.20001 5.20001 5.78204 5.20001 6.50001C5.20001 7.21798 5.78204 7.80001 6.50001 7.80001Z"/>
<path d="M11.7 7.80001C12.4179 7.80001 13 7.21798 13 6.50001C13 5.78204 12.4179 5.20001 11.7 5.20001C10.982 5.20001 10.4 5.78204 10.4 6.50001C10.4 7.21798 10.982 7.80001 11.7 7.80001Z"/>
<path d="M16.9 7.80001C17.6179 7.80001 18.2 7.21798 18.2 6.50001C18.2 5.78204 17.6179 5.20001 16.9 5.20001C16.182 5.20001 15.6 5.78204 15.6 6.50001C15.6 7.21798 16.182 7.80001 16.9 7.80001Z"/>
<path d="M62.4 7.80001H71.5C72.218 7.80001 72.8 7.21798 72.8 6.50001C72.8 5.78204 72.218 5.20001 71.5 5.20001H62.4C61.682 5.20001 61.1 5.78204 61.1 6.50001C61.1 7.21798 61.682 7.80001 62.4 7.80001Z"/>
<mask id="epath-6-inside-1_91_501">
<path d="M23.4 29.9C24.8359 29.9 26 28.736 26 27.3V18.2C26 16.7641 24.8359 15.6 23.4 15.6H10.4C8.96405 15.6 7.79999 16.7641 7.79999 18.2V27.3C7.79999 28.736 8.96405 29.9 10.4 29.9H23.4ZM10.4 18.2H23.4V27.3H10.4V18.2Z"/>
</mask>
<path d="M23.4 29.9C24.8359 29.9 26 28.736 26 27.3V18.2C26 16.7641 24.8359 15.6 23.4 15.6H10.4C8.96405 15.6 7.79999 16.7641 7.79999 18.2V27.3C7.79999 28.736 8.96405 29.9 10.4 29.9H23.4ZM10.4 18.2H23.4V27.3H10.4V18.2Z"/>
<path d="M10.4 18.2V9.6667H1.86665V18.2H10.4ZM23.4 18.2H31.9333V9.6667H23.4V18.2ZM23.4 27.3V35.8334H31.9333V27.3H23.4ZM10.4 27.3H1.86665V35.8334H10.4V27.3ZM23.4 38.4334C29.5488 38.4334 34.5333 33.4488 34.5333 27.3H17.4667C17.4667 24.0231 20.1231 21.3667 23.4 21.3667V38.4334ZM34.5333 27.3V18.2H17.4667V27.3H34.5333ZM34.5333 18.2C34.5333 12.0513 29.5488 7.0667 23.4 7.0667V24.1334C20.1231 24.1334 17.4667 21.4769 17.4667 18.2H34.5333ZM23.4 7.0667H10.4V24.1334H23.4V7.0667ZM10.4 7.0667C4.25122 7.0667 -0.733346 12.0513 -0.733346 18.2H16.3333C16.3333 21.4769 13.6769 24.1334 10.4 24.1334V7.0667ZM-0.733346 18.2V27.3H16.3333V18.2H-0.733346ZM-0.733346 27.3C-0.733346 33.4488 4.25122 38.4334 10.4 38.4334V21.3667C13.6769 21.3667 16.3333 24.0231 16.3333 27.3H-0.733346ZM10.4 38.4334H23.4V21.3667H10.4V38.4334ZM10.4 26.7334H23.4V9.6667H10.4V26.7334ZM14.8667 18.2V27.3H31.9333V18.2H14.8667ZM23.4 18.7667H10.4V35.8334H23.4V18.7667ZM18.9333 27.3V18.2H1.86665V27.3H18.9333Z" mask="url(#epath-6-inside-1_91_501)"/>
<mask id="epath-8-inside-2_91_501">
<path d="M32.5 29.9H45.5C46.936 29.9 48.1 28.736 48.1 27.3V18.2C48.1 16.7641 46.936 15.6 45.5 15.6H32.5C31.0641 15.6 29.9 16.7641 29.9 18.2V27.3C29.9 28.736 31.0641 29.9 32.5 29.9ZM32.5 18.2H45.5V27.3H32.5V18.2Z"/>
</mask>
<path d="M32.5 29.9H45.5C46.936 29.9 48.1 28.736 48.1 27.3V18.2C48.1 16.7641 46.936 15.6 45.5 15.6H32.5C31.0641 15.6 29.9 16.7641 29.9 18.2V27.3C29.9 28.736 31.0641 29.9 32.5 29.9ZM32.5 18.2H45.5V27.3H32.5V18.2Z"/>
<path d="M32.5 18.2V9.6667H23.9667V18.2H32.5ZM45.5 18.2H54.0334V9.6667H45.5V18.2ZM45.5 27.3V35.8334H54.0334V27.3H45.5ZM32.5 27.3H23.9667V35.8334H32.5V27.3ZM32.5 38.4334H45.5V21.3667H32.5V38.4334ZM45.5 38.4334C51.6488 38.4334 56.6334 33.4488 56.6334 27.3H39.5667C39.5667 24.0231 42.2231 21.3667 45.5 21.3667V38.4334ZM56.6334 27.3V18.2H39.5667V27.3H56.6334ZM56.6334 18.2C56.6334 12.0513 51.6488 7.0667 45.5 7.0667V24.1334C42.2231 24.1334 39.5667 21.4769 39.5667 18.2H56.6334ZM45.5 7.0667H32.5V24.1334H45.5V7.0667ZM32.5 7.0667C26.3513 7.0667 21.3667 12.0513 21.3667 18.2H38.4334C38.4334 21.4769 35.7769 24.1334 32.5 24.1334V7.0667ZM21.3667 18.2V27.3H38.4334V18.2H21.3667ZM21.3667 27.3C21.3667 33.4488 26.3513 38.4334 32.5 38.4334V21.3667C35.7769 21.3667 38.4334 24.0231 38.4334 27.3H21.3667ZM32.5 26.7334H45.5V9.6667H32.5V26.7334ZM36.9667 18.2V27.3H54.0334V18.2H36.9667ZM45.5 18.7667H32.5V35.8334H45.5V18.7667ZM41.0334 27.3V18.2H23.9667V27.3H41.0334Z" mask="url(#epath-8-inside-2_91_501)"/>
<mask id="epath-10-inside-3_91_501">
<path d="M67.6 15.6H54.6C53.1641 15.6 52 16.7641 52 18.2V27.3C52 28.736 53.1641 29.9 54.6 29.9H67.6C69.0359 29.9 70.2 28.736 70.2 27.3V18.2C70.2 16.7641 69.0359 15.6 67.6 15.6ZM54.6 27.3V18.2H67.6V27.3H54.6Z"/>
</mask>
<path d="M67.6 15.6H54.6C53.1641 15.6 52 16.7641 52 18.2V27.3C52 28.736 53.1641 29.9 54.6 29.9H67.6C69.0359 29.9 70.2 28.736 70.2 27.3V18.2C70.2 16.7641 69.0359 15.6 67.6 15.6ZM54.6 27.3V18.2H67.6V27.3H54.6Z"/>
<path d="M54.6 27.3H46.0667V35.8334H54.6V27.3ZM54.6 18.2V9.6667H46.0667V18.2H54.6ZM67.6 18.2H76.1333V9.6667H67.6V18.2ZM67.6 27.3V35.8334H76.1333V27.3H67.6ZM67.6 7.0667H54.6V24.1334H67.6V7.0667ZM54.6 7.0667C48.4512 7.0667 43.4667 12.0513 43.4667 18.2H60.5333C60.5333 21.4769 57.8769 24.1334 54.6 24.1334V7.0667ZM43.4667 18.2V27.3H60.5333V18.2H43.4667ZM43.4667 27.3C43.4667 33.4488 48.4512 38.4334 54.6 38.4334V21.3667C57.8769 21.3667 60.5333 24.0231 60.5333 27.3H43.4667ZM54.6 38.4334H67.6V21.3667H54.6V38.4334ZM67.6 38.4334C73.7488 38.4334 78.7333 33.4488 78.7333 27.3H61.6667C61.6667 24.0231 64.3231 21.3667 67.6 21.3667V38.4334ZM78.7333 27.3V18.2H61.6667V27.3H78.7333ZM78.7333 18.2C78.7333 12.0513 73.7488 7.0667 67.6 7.0667V24.1334C64.3231 24.1334 61.6667 21.4769 61.6667 18.2H78.7333ZM63.1333 27.3V18.2H46.0667V27.3H63.1333ZM54.6 26.7334H67.6V9.6667H54.6V26.7334ZM59.0667 18.2V27.3H76.1333V18.2H59.0667ZM67.6 18.7667H54.6V35.8334H67.6V18.7667Z" mask="url(#epath-10-inside-3_91_501)"/>
<path d="M23.4 32.5001H10.4C9.68201 32.5001 9.09998 33.0821 9.09998 33.8001C9.09998 34.518 9.68201 35.1001 10.4 35.1001H23.4C24.1179 35.1001 24.7 34.518 24.7 33.8001C24.7 33.0821 24.1179 32.5001 23.4 32.5001Z"/>
<path d="M23.4 37.7H10.4C9.68201 37.7 9.09998 38.282 9.09998 39C9.09998 39.718 9.68201 40.3 10.4 40.3H23.4C24.1179 40.3 24.7 39.718 24.7 39C24.7 38.282 24.1179 37.7 23.4 37.7Z"/>
<path d="M45.5 32.5001H32.5C31.782 32.5001 31.2 33.0821 31.2 33.8001C31.2 34.518 31.782 35.1001 32.5 35.1001H45.5C46.218 35.1001 46.8 34.518 46.8 33.8001C46.8 33.0821 46.218 32.5001 45.5 32.5001Z"/>
<path d="M45.5 37.7H32.5C31.782 37.7 31.2 38.282 31.2 39C31.2 39.718 31.782 40.3 32.5 40.3H45.5C46.218 40.3 46.8 39.718 46.8 39C46.8 38.282 46.218 37.7 45.5 37.7Z"/>
<path d="M67.6 32.5001H54.6C53.882 32.5001 53.3 33.0821 53.3 33.8001C53.3 34.518 53.882 35.1001 54.6 35.1001H67.6C68.318 35.1001 68.9 34.518 68.9 33.8001C68.9 33.0821 68.318 32.5001 67.6 32.5001Z"/>
<path d="M59.7116 50.9014C59.6921 50.8806 59.6856 50.8533 59.6661 50.8338C59.6315 50.8079 59.5955 50.784 59.5582 50.7623C47.8571 40.2798 30.1429 40.2798 18.4418 50.7623C18.4044 50.784 18.3684 50.8079 18.3339 50.8338C18.3144 50.8533 18.3079 50.8806 18.2884 50.9014C12.4668 56.1711 9.13179 63.6476 9.09998 71.4999C9.09998 72.2179 9.68201 72.7999 10.4 72.7999H67.6C68.3179 72.7999 68.9 72.2179 68.9 71.4999C68.8682 63.6476 65.5331 56.1711 59.7116 50.9014ZM42.6608 70.1999H35.3392C35.8818 68.6424 37.3506 67.5987 39 67.5987C40.6494 67.5987 42.1181 68.6424 42.6608 70.1999ZM45.37 70.1999C45.0419 68.6358 44.1492 67.2474 42.8623 66.2999L49.2791 52.5485C49.4841 52.1265 49.4457 51.6267 49.1788 51.2409C48.9118 50.855 48.4576 50.643 47.9904 50.6861C47.5232 50.7291 47.1154 51.0206 46.9235 51.4487L40.508 65.1949C40.0148 65.0704 39.5086 65.0049 39 64.9999C35.9123 65.0038 33.2519 67.1756 32.63 70.1999H11.7338C12.0927 63.9231 14.7755 58.0046 19.2595 53.5976L22.4809 56.819C22.991 57.3117 23.8018 57.3046 24.3032 56.8032C24.8047 56.3017 24.8117 55.4909 24.3191 54.9808L21.19 51.8491C25.8665 48.0194 31.6606 45.8126 37.7 45.561V50.6999C37.7 51.4179 38.282 51.9999 39 51.9999C39.7179 51.9999 40.3 51.4179 40.3 50.6999V45.561C46.3393 45.8126 52.1334 48.0194 56.81 51.8491L53.6783 54.9808C53.3403 55.3072 53.2048 55.7906 53.3238 56.2451C53.4427 56.6996 53.7977 57.0546 54.2522 57.1735C54.7067 57.2925 55.1901 57.157 55.5165 56.819L58.7379 53.5976C63.2228 58.0042 65.9065 63.9227 66.2662 70.1999H45.37Z"/>
<path d="M67.6 37.7H54.6C53.882 37.7 53.3 38.282 53.3 39C53.3 39.718 53.882 40.3 54.6 40.3H67.6C68.318 40.3 68.9 39.718 68.9 39C68.9 38.282 68.318 37.7 67.6 37.7Z"/>
</symbol><symbol viewBox="0 0 23 77" id="arrow" xmlns="http://www.w3.org/2000/svg">
<path d="M12.0493 0.928091C11.4573 0.348575 10.5076 0.358686 9.92812 0.950673L0.484343 10.5977C-0.095175 11.1897 -0.0850645 12.1394 0.506925 12.7189C1.09891 13.2984 2.04861 13.2883 2.62813 12.6963L11.0226 4.12119L19.5977 12.5157C20.1897 13.0952 21.1394 13.0851 21.7189 12.4931C22.2984 11.9011 22.2883 10.9514 21.6963 10.3719L12.0493 0.928091ZM13.2877 75.9798L12.4999 1.98401L9.5001 2.01595L10.2879 76.0118L13.2877 75.9798Z"/>
</symbol><symbol viewBox="0 0 96 96" id="desktop" xmlns="http://www.w3.org/2000/svg">
<path d="M54.1611 25.121C55.5071 25.121 56.3996 23.7436 55.8936 22.5299C55.5579 21.7103 54.6741 21.2317 53.7956 21.4087C52.8941 21.5915 52.2861 22.375 52.2861 23.2462C52.2861 24.2491 53.0972 25.121 54.1611 25.121Z"/>
<path d="M48 54.0505C57.3707 54.0505 64.9941 46.4271 64.9941 37.0564C64.9941 33.2258 63.6824 29.4689 61.3007 26.4777C60.6559 25.6675 59.476 25.5332 58.666 26.1786C57.8558 26.8236 57.7219 28.0032 58.3669 28.8134C60.2492 31.1774 61.2441 34.0277 61.2441 37.0564C61.2441 44.3592 55.3028 50.3005 48 50.3005C40.6973 50.3005 34.7562 44.3592 34.7562 37.0564C34.7562 30.0173 40.2563 24.2084 47.2776 23.8317C47.6654 23.8109 48.0194 23.6736 48.3074 23.4557C49.7744 22.3459 48.9207 19.9904 47.0768 20.0871C38.0652 20.5705 31.0062 28.0242 31.0062 37.0564C31.006 46.4269 38.6295 54.0505 48 54.0505Z"/>
<path d="M87.5111 13.0594H76.245C75.6703 12.2151 75.312 12.006 72.9448 9.5955C70.4136 7.06462 66.2947 7.06462 63.7635 9.5955L60.8975 12.4616C59.4144 11.6822 57.8666 11.0402 56.2706 10.5428V6.49219C56.2708 2.91244 53.3585 0 49.7786 0H46.2212C42.6414 0 39.729 2.91244 39.729 6.49219V10.5429C38.1334 11.0404 36.5852 11.6826 35.1022 12.462L32.2361 9.59569C29.7049 7.06444 25.5862 7.06444 23.0548 9.59569C20.7272 11.9661 20.3304 12.2137 19.755 13.0596H8.48887C3.92174 13.0596 0.206055 16.7751 0.206055 21.3424V65.2976C0.206055 69.8516 3.90862 73.5804 8.48868 73.5804H40.9772L38.5187 82.4066H32.8837C29.4967 82.4066 26.7412 85.1621 26.7412 88.5493V92.25H19.8585C18.8229 92.25 17.9835 93.0896 17.9835 94.125C17.9835 95.1604 18.8229 96 19.8585 96H76.1415C77.1769 96 78.0165 95.1604 78.0165 94.125C78.0165 93.0896 77.1769 92.25 76.1415 92.25H69.2587V88.5491C69.2587 85.1621 66.5032 82.4064 63.1162 82.4064H57.4811L55.0226 73.5803H87.5113C92.0784 73.5803 95.7941 69.8648 95.7941 65.2974C95.7941 62.9657 95.7941 22.8889 95.7941 21.3422C95.7939 16.7751 92.0784 13.0594 87.5111 13.0594ZM87.5111 16.8094C90.0105 16.8094 92.0439 18.8428 92.0439 21.3422V57.0769H77.3413C77.2579 55.4989 76.6084 53.9681 75.4607 52.8203L72.5945 49.9543C73.3742 48.4712 74.0162 46.9234 74.5136 45.3274C78.6107 45.3171 78.6555 45.3521 79.2272 45.2938C82.4968 44.9608 85.0565 42.1914 85.0565 38.8352V35.2777C85.0565 31.6978 82.1443 28.7856 78.5644 28.7856H74.5136C74.0162 27.1896 73.374 25.6417 72.5945 24.1586L75.4607 21.2927C76.704 20.0494 77.339 18.4213 77.364 16.8094H87.5111ZM23.1909 14.763L25.7064 12.2473C26.7757 11.1782 28.5154 11.1782 29.5845 12.2473L33.4536 16.1166C34.0601 16.7226 35.0008 16.8403 35.7382 16.4019C37.716 15.2252 39.8449 14.3422 42.066 13.7775C42.8972 13.5664 43.4792 12.8181 43.4792 11.9604V6.49219C43.4792 4.98019 44.7094 3.75 46.2214 3.75H49.7788C51.2908 3.75 52.521 4.98019 52.521 6.49219V11.9604C52.521 12.8181 53.103 13.5664 53.9342 13.7775C56.1553 14.3421 58.2842 15.2252 60.2619 16.4019C60.9988 16.8405 61.9397 16.7229 62.5466 16.1166L66.4155 12.2473C67.4846 11.1786 69.2244 11.1782 70.2937 12.2473C72.8229 14.8605 73.3406 14.9902 73.5662 16.2052C73.7317 17.1146 73.4353 18.0144 72.8092 18.6409L68.9402 22.5099C68.3336 23.1165 68.216 24.0574 68.6548 24.7948C69.6845 26.5252 70.4893 28.3714 71.0526 30.294C71.133 30.5687 71.2085 30.8449 71.2792 31.1226C71.4904 31.9538 72.2387 32.5356 73.0963 32.5356H78.5645C80.0765 32.5356 81.3067 33.7657 81.3067 35.2777V38.8352C81.3067 40.3472 80.0765 41.5774 78.5645 41.5774H73.0963C72.2387 41.5774 71.4904 42.1594 71.2792 42.9906C70.7147 45.2117 69.8316 47.3406 68.6548 49.3183C68.6274 49.3644 68.6021 49.4113 68.579 49.4587C68.2327 50.1718 68.3715 51.0341 68.9404 51.603C72.3795 55.2649 73.409 55.5306 73.5926 57.0769H22.4077C22.4784 56.4812 22.746 55.9166 23.1907 55.4719L27.0598 51.6028C27.6664 50.9963 27.7839 50.0554 27.3454 49.3181C26.1682 47.34 25.2853 45.2111 24.7211 42.9904C24.51 42.159 23.7615 41.5772 22.9039 41.5772H17.4356C15.9236 41.5772 14.6934 40.347 14.6934 38.835V35.2776C14.6934 33.7656 15.9236 32.5354 17.4356 32.5354H22.9041C23.7617 32.5354 24.51 31.9534 24.7213 31.1222C25.2859 28.9009 26.1686 26.7722 27.3456 24.7946C27.7824 24.0604 27.6694 23.1191 27.06 22.5098C23.2669 18.6711 23.1412 18.6737 22.8289 18.1922C22.1317 17.1201 22.2707 15.6829 23.1909 14.763ZM8.48887 16.8094H18.636C18.6615 18.4414 19.3117 20.0651 20.5393 21.2927L23.4054 24.1586C22.626 25.6417 21.9838 27.1899 21.4864 28.7856H17.4356C13.8559 28.7856 10.9434 31.6978 10.9434 35.2777V38.8352C10.9434 42.4187 13.8594 45.3274 17.4356 45.3274H21.4864C21.9838 46.923 22.6258 48.4712 23.4054 49.9543L20.5393 52.8203C19.3914 53.9681 18.7421 55.4989 18.6587 57.0769H3.95605V21.3422C3.95605 18.8428 5.98949 16.8094 8.48887 16.8094ZM65.5087 88.5491V92.25H30.4912V88.5491C30.4912 87.2299 31.5645 86.1564 32.8837 86.1564H63.1162C64.4355 86.1564 65.5087 87.2299 65.5087 88.5491ZM53.5884 82.4064H42.4114L44.8699 73.5803H51.1297L53.5884 82.4064ZM92.0439 65.2974C92.0439 67.7968 90.0105 69.8303 87.5111 69.8303C84.7125 69.8303 11.0998 69.8303 8.48868 69.8303C5.98199 69.8303 3.95587 67.7899 3.95587 65.2974V60.8269H92.0437L92.0439 65.2974Z"/>
</symbol><symbol viewBox="0 0 80 80" id="pathway" xmlns="http://www.w3.org/2000/svg">
<g clip-path="url(#cclip0_58_42)">
<path d="M78.6667 8C79.403 8 80 7.403 80 6.66667V1.33333C80 0.597005 79.403 0 78.6667 0H1.33333C0.597005 0 0 0.597005 0 1.33333V6.66667C0 7.403 0.597005 8 1.33333 8H4V53.3333H1.33333C0.597005 53.3333 0 53.9303 0 54.6667V60C0 60.7363 0.597005 61.3333 1.33333 61.3333H34.4362L20.3216 77.8001C19.9831 78.1953 19.9056 78.7513 20.123 79.224C20.3405 79.6966 20.8132 79.9994 21.3333 80H26.6667C27.056 80 27.4251 79.8301 27.6784 79.5345L36 69.8307V78.6667C36 79.403 36.597 80 37.3333 80H42.6667C43.403 80 44 79.403 44 78.6667V69.8307L52.3216 79.5345C52.5749 79.8301 52.944 80 53.3333 80H58.6667C59.1869 79.9994 59.6595 79.6966 59.877 79.224C60.0944 78.7513 60.0169 78.1953 59.6784 77.8001L45.5638 61.3333H78.6667C79.403 61.3333 80 60.7363 80 60V54.6667C80 53.9303 79.403 53.3333 78.6667 53.3333H76V8H78.6667ZM2.66667 2.66667H77.3333V5.33333H2.66667V2.66667ZM26.0534 77.3333H24.2318L36 63.6003V65.7331L26.0534 77.3333ZM41.3333 77.3333H38.6667V61.3333H41.3333V77.3333ZM53.9466 77.3333L44 65.7331V63.6003L55.7682 77.3333H53.9466ZM77.3333 58.6667H2.66667V56H77.3333V58.6667ZM73.3333 53.3333H6.66667V8H73.3333V53.3333Z"/>
<path d="M20 42.6667C19.9896 45.4408 22.1075 47.7598 24.8711 48C27.6348 48.2402 30.1218 46.3216 30.5899 43.5872C31.0586 40.8529 29.3529 38.2162 26.6667 37.5228V37.3333C26.6713 33.653 29.653 30.6712 33.3334 30.6667H46.6667C51.8184 30.6602 55.9935 26.485 56 21.3333V21.1439C58.6003 20.4727 60.2963 17.972 59.9577 15.3079C59.6192 12.6439 57.3523 10.6465 54.6667 10.6465C51.9812 10.6465 49.7142 12.6439 49.3757 15.3079C49.0371 17.972 50.7331 20.4727 53.3334 21.1439V21.3333C53.3288 25.0137 50.347 27.9954 46.6667 28H33.3334C28.1817 28.0065 24.0065 32.1816 24 37.3333V37.5228C21.6524 38.1289 20.0092 40.2422 20 42.6667ZM52 16C52 14.5273 53.194 13.3333 54.6667 13.3333C56.1394 13.3333 57.3334 14.5273 57.3334 16C57.3334 17.4727 56.1394 18.6667 54.6667 18.6667C53.194 18.6667 52 17.4727 52 16ZM25.3334 40C26.806 40 28 41.194 28 42.6667C28 44.1393 26.806 45.3333 25.3334 45.3333C23.8607 45.3333 22.6667 44.1393 22.6667 42.6667C22.6667 41.194 23.8607 40 25.3334 40Z"/>
<path d="M47.2187 36.2292L45.3333 38.1146L43.4479 36.2292L41.5625 38.1146L43.4479 40L41.5625 41.8854L43.4479 43.7709L45.3333 41.8854L47.2187 43.7709L49.1042 41.8854L47.2187 40L49.1042 38.1146L47.2187 36.2292Z"/>
<path d="M58.8958 28.7812L60.7812 30.6666L58.8958 32.5521L60.7812 34.4375L62.6666 32.5521L64.5521 34.4375L66.4375 32.5521L64.5521 30.6666L66.4375 28.7812L64.5521 26.8958L62.6666 28.7812L60.7812 26.8958L58.8958 28.7812Z"/>
<path d="M19.2187 22.8958L17.3333 24.7812L15.4479 22.8958L13.5625 24.7812L15.4479 26.6666L13.5625 28.5521L15.4479 30.4375L17.3333 28.5521L19.2187 30.4375L21.1042 28.5521L19.2187 26.6666L21.1042 24.7812L19.2187 22.8958Z"/>
<path d="M31.4479 22.4375L33.3333 20.5521L35.2187 22.4375L37.1042 20.5521L35.2187 18.6666L37.1042 16.7812L35.2187 14.8958L33.3333 16.7812L31.4479 14.8958L29.5625 16.7812L31.4479 18.6666L29.5625 20.5521L31.4479 22.4375Z"/>
<path d="M57.3333 42.6667H60V45.3334H57.3333V42.6667Z"/>
<path d="M62.6667 42.6667H68V45.3334H62.6667V42.6667Z"/>
<path d="M57.3333 46.6667H68V49.3334H57.3333V46.6667Z"/>
<path d="M12 10.6667H20V13.3334H12V10.6667Z"/>
<path d="M12 14.6667H20V17.3334H12V14.6667Z"/>
</g>
<defs>
<clipPath id="cclip0_58_42">
<rect width="80" height="80"/>
</clipPath>
</defs>
</symbol><symbol viewBox="0 0 90 90" id="target" xmlns="http://www.w3.org/2000/svg">
<path d="M89.4496 13.7661C89.3759 13.5118 89.2353 13.2821 89.0423 13.101C88.8493 12.9199 88.6111 12.7941 88.3527 12.7367L79.3035 10.6923L77.2591 1.64306C77.201 1.38536 77.0748 1.14798 76.8937 0.955697C76.7125 0.763415 76.4831 0.62328 76.2293 0.549923C75.9755 0.476565 75.7067 0.472674 75.4509 0.538655C75.1951 0.604636 74.9617 0.738071 74.7751 0.92503L64.3674 11.3344C55.5603 6.01994 45.1126 4.11289 34.9959 5.97314C24.8792 7.83339 15.7932 13.3323 9.45272 21.432C3.1122 29.5318 -0.0443417 39.6722 0.57879 49.9396C1.20192 60.2071 5.56162 69.8913 12.8351 77.1649C20.1087 84.4384 29.7929 88.7981 40.0604 89.4212C50.3278 90.0443 60.4682 86.8878 68.568 80.5473C76.6677 74.2068 82.1666 65.1208 84.0269 55.0041C85.8871 44.8874 83.9801 34.4397 78.6656 25.6326L89.0775 15.2207C89.2639 15.0336 89.3967 14.8 89.4621 14.5442C89.5275 14.2883 89.5232 14.0197 89.4496 13.7661ZM81.7664 47.3937C81.7652 56.014 78.9193 64.393 73.6702 71.2309C68.4211 78.0687 61.0621 82.9832 52.7349 85.212C44.4077 87.4408 35.5778 86.8593 27.6148 83.5577C19.6518 80.2561 13.0009 74.4189 8.6939 66.9517C4.38687 59.4845 2.66442 50.8046 3.79376 42.2586C4.9231 33.7126 8.8411 25.7782 14.94 19.6861C21.0388 13.594 28.9777 9.68485 37.5249 8.56503C46.0722 7.44522 54.7501 9.17733 62.2125 13.4927L57.4327 18.2725C57.3916 18.3193 57.3535 18.3686 57.3188 18.4202C50.417 14.9065 42.4884 13.9697 34.9578 15.7782C27.4273 17.5868 20.7888 22.022 16.2355 28.2868C11.6822 34.5516 9.51273 42.235 10.1171 49.956C10.7214 57.6771 14.0599 64.9294 19.5325 70.4094C25.005 75.8894 32.2528 79.2378 39.973 79.8526C47.6933 80.4675 55.3796 78.3085 61.6506 73.7637C67.9215 69.219 72.3658 62.5865 74.1846 55.0584C76.0034 47.5303 75.0774 39.6004 71.5731 32.6939C71.6273 32.6556 71.6789 32.6136 71.7275 32.5682L76.5073 27.7883C79.9591 33.7451 81.7735 40.5091 81.7664 47.3937ZM68.069 32.4475C71.6952 38.6378 72.9413 45.9374 71.5741 52.9801C70.2069 60.0228 66.3202 66.3259 60.6412 70.7099C54.9623 75.0938 47.8805 77.258 40.7211 76.7975C33.5617 76.337 26.8155 73.2833 21.745 68.2079C16.6745 63.1326 13.6273 56.3834 13.1737 49.2236C12.7201 42.0638 14.8911 34.984 19.2805 29.3093C23.6699 23.6346 29.9767 19.7539 37.0208 18.3935C44.0648 17.0331 51.3631 18.2862 57.5499 21.9184L59.105 28.8067L57.6132 30.2985C53.1646 26.3921 47.3712 24.3687 41.4579 24.6563C35.5446 24.9439 29.9749 27.5199 25.9264 31.8396C21.8779 36.1593 19.6679 41.8841 19.7638 47.8037C19.8597 53.7232 22.2539 59.3735 26.4402 63.5598C30.6265 67.7461 36.2768 70.1403 42.1963 70.2362C48.1159 70.3321 53.8407 68.1221 58.1604 64.0736C62.4801 60.0251 65.0561 54.4554 65.3437 48.5421C65.6313 42.6288 63.608 36.8354 59.7015 32.3868L61.1933 30.895L68.069 32.4475ZM48.9555 47.3937C48.9607 48.8052 48.4972 50.1785 47.6376 51.2981C46.778 52.4178 45.5711 53.2203 44.2061 53.5799C42.8412 53.9394 41.3955 53.8357 40.0959 53.2849C38.7962 52.7341 37.7163 51.7674 37.0254 50.5365C36.3345 49.3056 36.0718 47.8802 36.2786 46.4839C36.4853 45.0876 37.1498 43.7994 38.1677 42.8215C39.1856 41.8437 40.4994 41.2314 41.9028 41.0808C43.3063 40.9302 44.72 41.2498 45.9222 41.9895L41.5617 46.35C41.4207 46.4862 41.3083 46.6492 41.2309 46.8294C41.1536 47.0095 41.1129 47.2033 41.1112 47.3993C41.1096 47.5954 41.147 47.7898 41.2212 47.9713C41.2955 48.1527 41.4052 48.3176 41.5439 48.4562C41.6825 48.5948 41.8474 48.7044 42.0289 48.7786C42.2104 48.8528 42.4048 48.8901 42.6009 48.8884C42.7969 48.8866 42.9907 48.8459 43.1708 48.7684C43.3509 48.691 43.5138 48.5785 43.65 48.4374L48.0105 44.0769C48.6279 45.0731 48.9551 46.2217 48.9555 47.3937ZM48.0476 39.8641C46.1452 38.4861 43.7935 37.8756 41.461 38.1541C39.1286 38.4326 36.9867 39.5797 35.4623 41.3669C33.9378 43.154 33.1427 45.45 33.2354 47.7971C33.3281 50.1443 34.3019 52.3704 35.9625 54.0318C37.6232 55.6931 39.8489 56.6677 42.196 56.7614C44.5432 56.855 46.8395 56.0609 48.6272 54.5371C50.415 53.0134 51.563 50.872 51.8424 48.5397C52.1219 46.2073 51.5123 43.8553 50.1351 41.9524L57.609 34.4784C60.9578 38.369 62.6681 43.4062 62.3804 48.5314C62.0927 53.6567 59.8295 58.4709 56.0664 61.9622C52.3032 65.4536 47.3332 67.3503 42.2008 67.2536C37.0684 67.157 32.1733 65.0746 28.5442 61.4441C24.9151 57.8135 22.8347 52.9176 22.7402 47.7851C22.6456 42.6527 24.5443 37.6834 28.0372 33.9217C31.53 30.16 36.3451 27.8987 41.4705 27.6131C46.5959 27.3275 51.6324 29.0398 55.5216 32.3902L48.0476 39.8641ZM75.7598 24.3593L70.218 29.9003L69.3869 29.7129L69.3548 29.7053L61.9594 28.0406L60.0955 19.7862L74.9725 4.90669L76.6322 12.2524C76.6937 12.5247 76.8312 12.774 77.0286 12.9714C77.226 13.1688 77.4753 13.3063 77.7476 13.3678L85.0933 15.0275L75.7598 24.3593Z"/>
</symbol><symbol viewBox="0 0 90 90" id="website_support" xmlns="http://www.w3.org/2000/svg">
<path d="M85.5 0H4.5C3.30762 0.00356114 2.1651 0.47881 1.32195 1.32195C0.47881 2.1651 0.00356114 3.30762 0 4.5V60C0.00356114 61.1924 0.47881 62.3349 1.32195 63.1781C2.1651 64.0212 3.30762 64.4964 4.5 64.5H20.115C20.1724 64.6953 20.1509 64.9054 20.055 65.085L16.275 71.37C15.7584 72.2328 15.5456 73.2437 15.6707 74.2415C15.7958 75.2393 16.2514 76.1664 16.965 76.875L22.125 82.035C22.8336 82.7486 23.7607 83.2042 24.7585 83.3293C25.7563 83.4544 26.7672 83.2416 27.63 82.725L33.915 78.945C34.0351 78.8826 34.168 78.8488 34.3032 78.8462C34.4385 78.8436 34.5726 78.8723 34.695 78.93C34.817 78.977 34.9265 79.0515 35.015 79.1478C35.1034 79.2441 35.1685 79.3595 35.205 79.485L36.975 86.595C37.2191 87.5678 37.7811 88.4312 38.5719 89.0481C39.3628 89.665 40.337 90.0001 41.34 90H48.66C49.663 90.0001 50.6372 89.665 51.4281 89.0481C52.2189 88.4312 52.7809 87.5678 53.025 86.595L54.795 79.485C54.8347 79.3546 54.9041 79.2353 54.9978 79.1364C55.0915 79.0374 55.207 78.9617 55.335 78.915C55.4543 78.8635 55.5836 78.8394 55.7134 78.8446C55.8432 78.8498 55.9702 78.8841 56.085 78.945L62.37 82.725C63.2338 83.2383 64.2439 83.4491 65.2408 83.3241C66.2378 83.1992 67.1646 82.7456 67.875 82.035L73.035 76.875C73.7486 76.1664 74.2042 75.2393 74.3293 74.2415C74.4544 73.2437 74.2416 72.2328 73.725 71.37L69.945 65.085C69.8565 64.9032 69.8352 64.696 69.885 64.5H85.5C86.6924 64.4964 87.8349 64.0212 88.678 63.1781C89.5212 62.3349 89.9964 61.1924 90 60V4.5C89.9964 3.30762 89.5212 2.1651 88.678 1.32195C87.8349 0.47881 86.6924 0.00356114 85.5 0ZM78 57.66C77.9997 57.995 77.8874 58.3203 77.6807 58.584C77.4741 58.8477 77.1852 59.0346 76.86 59.115L69.75 60.885C69.1653 61.0406 68.625 61.3304 68.1719 61.7314C67.7188 62.1324 67.3655 62.6335 67.14 63.195C66.9104 63.7469 66.8126 64.3446 66.8543 64.9408C66.8959 65.5371 67.0759 66.1154 67.38 66.63L71.145 72.915C71.3205 73.2004 71.3939 73.5369 71.353 73.8694C71.3121 74.2019 71.1594 74.5107 70.92 74.745L65.745 79.92C65.5107 80.1594 65.2019 80.3121 64.8694 80.353C64.5369 80.3939 64.2004 80.3205 63.915 80.145L57.63 76.38C57.11 76.0798 56.5279 75.903 55.9287 75.8633C55.3296 75.8235 54.7293 75.922 54.1742 76.151C53.6191 76.38 53.124 76.7334 52.7271 77.184C52.3302 77.6347 52.0421 78.1704 51.885 78.75L50.115 85.86C50.0346 86.1852 49.8477 86.4741 49.584 86.6807C49.3203 86.8874 48.995 86.9997 48.66 87H41.34C41.005 86.9997 40.6797 86.8874 40.416 86.6807C40.1523 86.4741 39.9654 86.1852 39.885 85.86L38.115 78.75C37.9594 78.1653 37.6696 77.625 37.2686 77.1719C36.8676 76.7188 36.3665 76.3655 35.805 76.14C35.329 75.9443 34.8197 75.8424 34.305 75.84C33.6225 75.8379 32.9528 76.0248 32.37 76.38L26.085 80.145C25.7996 80.3205 25.4631 80.3939 25.1306 80.353C24.7981 80.3121 24.4893 80.1594 24.255 79.92L19.08 74.745C18.8406 74.5107 18.6879 74.2019 18.647 73.8694C18.6061 73.5369 18.6795 73.2004 18.855 72.915L22.62 66.63C22.9202 66.11 23.097 65.5279 23.1367 64.9287C23.1765 64.3296 23.078 63.7293 22.849 63.1742C22.62 62.6191 22.2666 62.124 21.816 61.7271C21.3653 61.3302 20.8296 61.0421 20.25 60.885L13.14 59.115C12.8148 59.0346 12.5259 58.8477 12.3193 58.584C12.1126 58.3203 12.0003 57.995 12 57.66V50.34C12.0003 50.005 12.1126 49.6797 12.3193 49.416C12.5259 49.1523 12.8148 48.9654 13.14 48.885L20.25 47.115C20.8347 46.9594 21.375 46.6696 21.8281 46.2686C22.2812 45.8676 22.6345 45.3665 22.86 44.805C23.0896 44.2531 23.1874 43.6554 23.1457 43.0592C23.1041 42.4629 22.9241 41.8846 22.62 41.37L18.855 35.085C18.6795 34.7996 18.6061 34.4631 18.647 34.1306C18.6879 33.7981 18.8406 33.4893 19.08 33.255L24.255 28.08C24.4893 27.8406 24.7981 27.6879 25.1306 27.647C25.4631 27.6061 25.7996 27.6795 26.085 27.855L32.37 31.62C32.89 31.9202 33.4721 32.097 34.0713 32.1367C34.6704 32.1765 35.2707 32.078 35.8258 31.849C36.3809 31.62 36.876 31.2666 37.2729 30.816C37.6698 30.3653 37.9579 29.8296 38.115 29.25L39.885 22.14C39.9654 21.8148 40.1523 21.5259 40.416 21.3193C40.6797 21.1126 41.005 21.0003 41.34 21H48.66C48.995 21.0003 49.3203 21.1126 49.584 21.3193C49.8477 21.5259 50.0346 21.8148 50.115 22.14L51.885 29.25C52.0406 29.8347 52.3304 30.375 52.7314 30.8281C53.1324 31.2812 53.6335 31.6345 54.195 31.86C54.7469 32.0896 55.3446 32.1874 55.9408 32.1457C56.5371 32.1041 57.1154 31.9241 57.63 31.62L63.915 27.855C64.2015 27.6834 64.5372 27.6124 64.8687 27.6531C65.2001 27.6939 65.5086 27.8441 65.745 28.08L70.92 33.255C71.1594 33.4893 71.3121 33.7981 71.353 34.1306C71.3939 34.4631 71.3205 34.7996 71.145 35.085L67.38 41.37C67.0798 41.89 66.903 42.4721 66.8633 43.0713C66.8235 43.6704 66.922 44.2707 67.151 44.8258C67.38 45.3809 67.7334 45.876 68.184 46.2729C68.6347 46.6698 69.1704 46.9579 69.75 47.115L76.86 48.885C77.1852 48.9654 77.4741 49.1523 77.6807 49.416C77.8874 49.6797 77.9997 50.005 78 50.34V57.66ZM87 60C87 60.3978 86.842 60.7794 86.5607 61.0607C86.2794 61.342 85.8978 61.5 85.5 61.5H78.825C79.4878 61.1017 80.0364 60.5389 80.4175 59.866C80.7986 59.1932 80.9992 58.4333 81 57.66V50.34C81.0001 49.337 80.665 48.3628 80.0481 47.5719C79.4312 46.7811 78.5678 46.2191 77.595 45.975L70.485 44.205C70.2743 44.1478 70.0924 44.0141 69.975 43.83C69.96 43.785 69.93 43.71 69.915 43.665C69.8635 43.5457 69.8394 43.4164 69.8446 43.2866C69.8498 43.1568 69.8841 43.0298 69.945 42.915L73.725 36.63C74.2416 35.7672 74.4544 34.7563 74.3293 33.7585C74.2042 32.7607 73.7486 31.8336 73.035 31.125L67.875 25.965C67.1664 25.2514 66.2393 24.7958 65.2415 24.6707C64.2437 24.5456 63.2328 24.7584 62.37 25.275L56.085 29.055C55.9649 29.1174 55.832 29.1512 55.6968 29.1538C55.5615 29.1564 55.4274 29.1277 55.305 29.07C55.183 29.023 55.0735 28.9485 54.985 28.8522C54.8966 28.7559 54.8315 28.6405 54.795 28.515L53.025 21.405C52.7809 20.4322 52.2189 19.5688 51.4281 18.9519C50.6372 18.335 49.663 17.9999 48.66 18H41.34C40.337 17.9999 39.3628 18.335 38.5719 18.9519C37.7811 19.5688 37.2191 20.4322 36.975 21.405L35.205 28.515C35.1653 28.6454 35.0959 28.7647 35.0022 28.8636C34.9085 28.9626 34.793 29.0383 34.665 29.085C34.5457 29.1365 34.4164 29.1606 34.2866 29.1554C34.1568 29.1502 34.0298 29.1159 33.915 29.055L27.63 25.275C26.7663 24.7617 25.7561 24.5509 24.7592 24.6759C23.7622 24.8008 22.8354 25.2544 22.125 25.965L16.965 31.125C16.2514 31.8336 15.7958 32.7607 15.6707 33.7585C15.5456 34.7563 15.7584 35.7672 16.275 36.63L20.055 42.915C20.1174 43.0351 20.1512 43.168 20.1538 43.3032C20.1564 43.4385 20.1277 43.5726 20.07 43.695C20.023 43.817 19.9485 43.9265 19.8522 44.015C19.7559 44.1034 19.6405 44.1685 19.515 44.205L12.405 45.975C11.4322 46.2191 10.5688 46.7811 9.95186 47.5719C9.33496 48.3628 8.99994 49.337 9 50.34V57.66C9.00075 58.4333 9.20142 59.1932 9.58251 59.866C9.96361 60.5389 10.5122 61.1017 11.175 61.5H4.5C4.10218 61.5 3.72064 61.342 3.43934 61.0607C3.15804 60.7794 3 60.3978 3 60V15H87V60ZM87 12H3V4.5C3 4.10218 3.15804 3.72064 3.43934 3.43934C3.72064 3.15804 4.10218 3 4.5 3H85.5C85.8978 3 86.2794 3.15804 86.5607 3.43934C86.842 3.72064 87 4.10218 87 4.5V12Z"/>
<path d="M6 6H9V9H6V6Z"/>
<path d="M12 6H15V9H12V6Z"/>
<path d="M18 6H21V9H18V6Z"/>
<path d="M45 36C41.4399 36 37.9598 37.0557 34.9997 39.0335C32.0397 41.0114 29.7326 43.8226 28.3702 47.1117C27.0078 50.4008 26.6513 54.02 27.3459 57.5116C28.0404 61.0033 29.7547 64.2106 32.2721 66.7279C34.7894 69.2453 37.9967 70.9596 41.4884 71.6541C44.98 72.3487 48.5992 71.9922 51.8883 70.6298C55.1774 69.2675 57.9886 66.9603 59.9665 64.0003C61.9443 61.0402 63 57.5601 63 54C62.9948 49.2277 61.0968 44.6523 57.7222 41.2778C54.3477 37.9032 49.7723 36.0052 45 36ZM45 69C42.0333 69 39.1332 68.1203 36.6665 66.472C34.1997 64.8238 32.2771 62.4811 31.1418 59.7403C30.0065 56.9994 29.7094 53.9834 30.2882 51.0736C30.867 48.1639 32.2956 45.4912 34.3934 43.3934C36.4912 41.2956 39.1639 39.867 42.0737 39.2882C44.9834 38.7094 47.9994 39.0065 50.7403 40.1418C53.4812 41.2771 55.8238 43.1997 57.4721 45.6664C59.1203 48.1332 60 51.0333 60 54C59.9956 57.9769 58.4139 61.7897 55.6018 64.6018C52.7897 67.4139 48.9769 68.9956 45 69Z"/>
<path d="M43.5 52.5H46.5V55.5H43.5V52.5Z"/>
<path d="M49.5 52.5H52.5V55.5H49.5V52.5Z"/>
<path d="M37.5 52.5H40.5V55.5H37.5V52.5Z"/>
</symbol></svg>