<svg width="42.687500" height="45.000000" viewBox="0 0 42.6875 45" fill="none" xmlns="http://www.w3.org/2000/svg" xmlns:xlink="http://www.w3.org/1999/xlink">
	<desc>
			Created with Pixso.
	</desc>
	<defs/>
	<g opacity="0.250000">
		<path id="Oval Copy" d="M21.34 45C33.13 45 42.68 34.92 42.68 22.5C42.68 10.07 33.13 0 21.34 0C9.55 0 0 10.07 0 22.5C0 34.92 9.55 45 21.34 45Z" fill="#FFFFFF" fill-opacity="0" fill-rule="nonzero"/>
		<path id="Oval Copy" d="M42.68 22.5C42.68 34.92 33.13 45 21.34 45C9.55 45 0 34.92 0 22.5C0 10.07 9.55 0 21.34 0C33.13 0 42.68 10.07 42.68 22.5ZM38.95 13.86Q40.68 17.8 40.68 22.5Q40.68 27.19 38.95 31.13Q37.54 34.33 34.98 37.03Q31.88 40.3 28.08 41.78Q24.95 43 21.34 43Q17.73 43 14.6 41.78Q10.8 40.3 7.7 37.03Q5.14 34.33 3.73 31.13Q2 27.19 2 22.5Q2 17.8 3.73 13.86Q5.14 10.66 7.7 7.96Q10.8 4.69 14.6 3.21Q17.73 2 21.34 2Q24.95 2 28.08 3.21Q31.88 4.69 34.98 7.96Q37.54 10.66 38.95 13.86Z" fill="#FFFFFF" fill-opacity="1.000000" fill-rule="evenodd"/>
	</g>
	<path id="Shape" d="M19.63 29.39L19.61 23.09L17.07 23.09L17.07 20.39L19.61 20.39L19.61 18.59C19.61 16.17 21.03 15 23.07 15C24.04 15 24.88 15.07 25.13 15.11L25.13 17.64L23.71 17.64C22.6 17.64 22.39 18.2 22.39 19.03L22.39 20.39L25.54 20.39L24.69 23.09L22.39 23.09L22.39 29.39L19.63 29.39Z" fill="#FFFFFF" fill-opacity="1.000000" fill-rule="nonzero"/>
</svg>
