<svg width="42.687500" height="45.000000" viewBox="0 0 42.6875 45" fill="none" xmlns="http://www.w3.org/2000/svg" xmlns:xlink="http://www.w3.org/1999/xlink">
	<desc>
			Created with Pixso.
	</desc>
	<defs/>
	<g opacity="0.250000">
		<path id="Oval Copy" d="M21.34 45C33.13 45 42.68 34.92 42.68 22.5C42.68 10.07 33.13 0 21.34 0C9.55 0 0 10.07 0 22.5C0 34.92 9.55 45 21.34 45Z" fill="#FFFFFF" fill-opacity="0" fill-rule="nonzero"/>
		<path id="Oval Copy" d="M42.68 22.5C42.68 34.92 33.13 45 21.34 45C9.55 45 0 34.92 0 22.5C0 10.07 9.55 0 21.34 0C33.13 0 42.68 10.07 42.68 22.5ZM38.95 13.86Q40.68 17.8 40.68 22.5Q40.68 27.19 38.95 31.13Q37.54 34.33 34.98 37.03Q31.88 40.3 28.08 41.78Q24.95 43 21.34 43Q17.73 43 14.6 41.78Q10.8 40.3 7.7 37.03Q5.14 34.33 3.73 31.13Q2 27.19 2 22.5Q2 17.8 3.73 13.86Q5.14 10.66 7.7 7.96Q10.8 4.69 14.6 3.21Q17.73 2 21.34 2Q24.95 2 28.08 3.21Q31.88 4.69 34.98 7.96Q37.54 10.66 38.95 13.86Z" fill="#FFFFFF" fill-opacity="1.000000" fill-rule="evenodd"/>
	</g>
	<path id="Oval" d="M24.53 19.94C24.94 19.94 25.27 19.59 25.27 19.16C25.27 18.73 24.94 18.38 24.53 18.38C24.12 18.38 23.79 18.73 23.79 19.16C23.79 19.59 24.12 19.94 24.53 19.94Z" fill="#FFFFFF" fill-opacity="1.000000" fill-rule="nonzero"/>
	<path id="Shape" d="M18.2607 22.5C18.2607 24.2924 19.6436 25.75 21.3438 25.75C23.0439 25.75 24.4268 24.2924 24.4268 22.5C24.4268 20.7076 23.0439 19.25 21.3438 19.25C19.6436 19.25 18.2607 20.7076 18.2607 22.5ZM19.8022 22.5C19.8022 21.6038 20.4937 20.875 21.3438 20.875C22.1938 20.875 22.8853 21.6038 22.8853 22.5C22.8853 23.3962 22.1938 24.125 21.3438 24.125C20.4937 24.125 19.8022 23.3962 19.8022 22.5Z" clip-rule="evenodd" fill="#FFFFFF" fill-opacity="1.000000" fill-rule="evenodd"/>
	<path id="Shape" d="M18.2607 29L24.4268 29C26.0112 29 27.5098 27.4205 27.5098 25.75L27.5098 19.25C27.5098 17.5795 26.0112 16 24.4268 16L18.2607 16C16.676 16 15.1777 17.5795 15.1777 19.25L15.1777 25.75C15.1777 27.4205 16.676 29 18.2607 29ZM16.7192 19.25C16.7192 18.4904 17.54 17.625 18.2607 17.625L24.4268 17.625C25.1475 17.625 25.9683 18.4904 25.9683 19.25L25.9683 25.75C25.9683 26.5096 25.1475 27.375 24.4268 27.375L18.2607 27.375C17.5261 27.375 16.7192 26.5243 16.7192 25.75L16.7192 19.25Z" clip-rule="evenodd" fill="#FFFFFF" fill-opacity="1.000000" fill-rule="evenodd"/>
</svg>
