<svg width="42.687500" height="45.000000" viewBox="0 0 42.6875 45" fill="none" xmlns="http://www.w3.org/2000/svg" xmlns:xlink="http://www.w3.org/1999/xlink">
	<desc>
			Created with Pixso.
	</desc>
	<defs/>
	<g opacity="0.250000" style="mix-blend-mode:normal">
		<path id="Oval Copy" d="M21.34 45C33.13 45 42.68 34.92 42.68 22.5C42.68 10.07 33.13 0 21.34 0C9.55 0 0 10.07 0 22.5C0 34.92 9.55 45 21.34 45Z" fill="#FFFFFF" fill-opacity="0" fill-rule="nonzero"/>
		<path id="Oval Copy" d="M42.68 22.5C42.68 34.92 33.13 45 21.34 45C9.55 45 0 34.92 0 22.5C0 10.07 9.55 0 21.34 0C33.13 0 42.68 10.07 42.68 22.5ZM38.72 13.96Q40.43 17.85 40.43 22.5Q40.43 27.14 38.72 31.03Q37.32 34.19 34.8 36.86Q31.73 40.09 27.98 41.55Q24.89 42.75 21.34 42.75Q17.78 42.75 14.7 41.55Q10.94 40.09 7.88 36.86Q5.35 34.19 3.96 31.03Q2.25 27.14 2.25 22.5Q2.25 17.85 3.96 13.96Q5.35 10.8 7.88 8.13Q10.94 4.9 14.7 3.44Q17.78 2.25 21.34 2.25Q24.89 2.25 27.98 3.44Q31.73 4.9 34.8 8.13Q37.32 10.8 38.72 13.96Z" fill="#FFFFFF" fill-opacity="1.000000" fill-rule="evenodd"/>
	</g>
	<path id="Oval" d="M16.77 19.37C17.66 19.37 18.37 18.61 18.37 17.68C18.37 16.75 17.66 16 16.77 16C15.89 16 15.17 16.75 15.17 17.68C15.17 18.61 15.89 19.37 16.77 19.37Z" fill="#FFFFFF" fill-opacity="1.000000" fill-rule="nonzero"/>
	<path id="Shape" d="M18.11 20.5L15.44 20.5C15.29 20.5 15.17 20.62 15.17 20.78L15.17 29.21C15.17 29.37 15.29 29.5 15.44 29.5L18.11 29.5C18.25 29.5 18.37 29.37 18.37 29.21L18.37 20.78C18.37 20.62 18.25 20.5 18.11 20.5Z" fill="#FFFFFF" fill-opacity="1.000000" fill-rule="nonzero"/>
	<path id="Shape" d="M26.06 20.11C24.92 19.7 23.49 20.06 22.63 20.71C22.61 20.59 22.5 20.5 22.38 20.5L19.71 20.5C19.56 20.5 19.44 20.62 19.44 20.78L19.44 29.21C19.44 29.37 19.56 29.5 19.71 29.5L22.38 29.5C22.52 29.5 22.64 29.37 22.64 29.21L22.64 23.15C23.07 22.76 23.63 22.63 24.08 22.84C24.53 23.03 24.78 23.51 24.78 24.15L24.78 29.21C24.78 29.37 24.9 29.5 25.04 29.5L27.71 29.5C27.86 29.5 27.98 29.37 27.98 29.21L27.98 23.58C27.95 21.27 26.92 20.42 26.06 20.11Z" fill="#FFFFFF" fill-opacity="1.000000" fill-rule="nonzero"/>
</svg>
