<svg width="42.687500" height="45.000000" viewBox="0 0 42.6875 45" fill="none" xmlns="http://www.w3.org/2000/svg" xmlns:xlink="http://www.w3.org/1999/xlink">
	<desc>
			Created with Pixso.
	</desc>
	<defs/>
	<g opacity="0.250000">
		<path id="Oval Copy" d="M21.34 45C33.13 45 42.68 34.92 42.68 22.5C42.68 10.07 33.13 0 21.34 0C9.55 0 0 10.07 0 22.5C0 34.92 9.55 45 21.34 45Z" fill="#FFFFFF" fill-opacity="0" fill-rule="nonzero"/>
		<path id="Oval Copy" d="M42.68 22.5C42.68 34.92 33.13 45 21.34 45C9.55 45 0 34.92 0 22.5C0 10.07 9.55 0 21.34 0C33.13 0 42.68 10.07 42.68 22.5ZM38.95 13.86Q40.68 17.8 40.68 22.5Q40.68 27.19 38.95 31.13Q37.54 34.33 34.98 37.03Q31.88 40.3 28.08 41.78Q24.95 43 21.34 43Q17.73 43 14.6 41.78Q10.8 40.3 7.7 37.03Q5.14 34.33 3.73 31.13Q2 27.19 2 22.5Q2 17.8 3.73 13.86Q5.14 10.66 7.7 7.96Q10.8 4.69 14.6 3.21Q17.73 2 21.34 2Q24.95 2 28.08 3.21Q31.88 4.69 34.98 7.96Q37.54 10.66 38.95 13.86Z" fill="#FFFFFF" fill-opacity="1.000000" fill-rule="evenodd"/>
	</g>
	<path id="Shape" d="M29.0981 18.7295C28.9236 18.0559 28.4116 17.5244 27.7617 17.343C26.5742 17.0055 21.8232 17 21.8232 17C21.8232 17 17.0728 16.9945 15.8845 17.3171C15.2476 17.4969 14.7212 18.0402 14.5452 18.713C14.2319 19.9424 14.229 22.4922 14.229 22.4922C14.229 22.4922 14.2261 25.0546 14.5369 26.2714C14.7114 26.9441 15.2231 27.4756 15.8738 27.657C17.0735 27.9945 21.8118 28 21.8118 28C21.8118 28 26.5627 28.0055 27.7505 27.6836C28.3997 27.5031 28.9138 26.9724 29.0903 26.2996C29.4043 25.071 29.4067 22.522 29.4067 22.522C29.4067 22.522 29.4219 19.9589 29.0981 18.7295ZM20.3071 20.144L20.3035 24.8544L24.2559 22.5032L20.3071 20.144Z" clip-rule="evenodd" fill="#FFFFFF" fill-opacity="1.000000" fill-rule="evenodd"/>
</svg>
