<svg width="40.000000" height="40.000000" viewBox="0 0 40 40" fill="none" xmlns="http://www.w3.org/2000/svg" xmlns:xlink="http://www.w3.org/1999/xlink">
	<desc>
			Created with Pixso.
	</desc>
	<defs/>
	<circle id="Ellipse 6" cx="20.000000" cy="20.000000" r="20.000000" fill="#F2F2F2" fill-opacity="1.000000"/>
	<path id="Vector" d="M16.79 24.8C15.91 24.8 15.2 25.52 15.2 26.4C15.2 27.28 15.91 28 16.79 28C17.67 28 18.39 27.28 18.39 26.4C18.39 25.52 17.67 24.8 16.79 24.8ZM12 12L12 13.6L13.6 13.6L16.48 19.67L15.39 21.63C15.27 21.85 15.2 22.12 15.2 22.4C15.2 23.28 15.91 24 16.79 24L26.39 24L26.39 22.4L17.13 22.4C17.02 22.4 16.93 22.31 16.93 22.2L16.95 22.1L17.67 20.8L23.63 20.8C24.24 20.8 24.76 20.47 25.04 19.97L27.9 14.78C27.96 14.67 28 14.53 28 14.4C28 13.96 27.63 13.6 27.2 13.6L15.36 13.6L14.61 12L12 12ZM24.8 24.8C23.91 24.8 23.2 25.52 23.2 26.4C23.2 27.28 23.91 28 24.8 28C25.67 28 26.39 27.28 26.39 26.4C26.39 25.52 25.67 24.8 24.8 24.8Z" fill="#A2A2A2" fill-opacity="1.000000" fill-rule="nonzero"/>
</svg>
