<svg width="51.390625" height="29.317703" viewBox="0 0 51.3906 29.3177" fill="none" xmlns="http://www.w3.org/2000/svg" xmlns:xlink="http://www.w3.org/1999/xlink">
	<desc>
			Created with Pixso.
	</desc>
	<defs>
		<linearGradient x1="52.659058" y1="-4.310999" x2="-1.883821" y2="28.979456" id="paint_linear_1_141_0" gradientUnits="userSpaceOnUse">
			<stop offset="0.270833" stop-color="#A3A3A3"/>
			<stop offset="0.412103" stop-color="#CCCCCC"/>
			<stop offset="0.551716" stop-color="#FFFFFF"/>
			<stop offset="0.677083" stop-color="#CCCCCC"/>
			<stop offset="0.833333" stop-color="#A3A3A3"/>
		</linearGradient>
	</defs>
	<path id="Vector" d="M1.01 1.01C1.69 0.33 2.49 0 3.42 0C4.34 0 5.14 0.33 5.82 1.01L25.66 20.85L45.56 0.94C46.19 0.31 46.98 0 47.93 0C48.88 0 49.69 0.33 50.37 1.01C51.05 1.69 51.39 2.49 51.39 3.42C51.39 4.34 51.05 5.14 50.37 5.82L27.55 28.57C27.28 28.84 26.99 29.03 26.67 29.14C26.36 29.26 26.02 29.31 25.66 29.31C25.3 29.31 24.96 29.26 24.64 29.14C24.32 29.03 24.03 28.84 23.76 28.57L0.94 5.75C0.31 5.12 0 4.34 0 3.42C0 2.49 0.33 1.69 1.01 1.01Z" fill="url(#paint_linear_1_141_0)" fill-opacity="1.000000" fill-rule="nonzero"/>
</svg>
