<svg width="19.994049" height="20.000000" viewBox="0 0 19.994 20" fill="none" xmlns="http://www.w3.org/2000/svg" xmlns:xlink="http://www.w3.org/1999/xlink">
	<desc>
			Created with Pixso.
	</desc>
	<defs>
		<linearGradient x1="-2.940006" y1="-0.493645" x2="19.763365" y2="20.733139" id="paint_linear_1_11162_0" gradientUnits="userSpaceOnUse">
			<stop offset="0.270833" stop-color="#A3A3A3"/>
			<stop offset="0.412103" stop-color="#CCCCCC"/>
			<stop offset="0.551716" stop-color="#FFFFFF"/>
			<stop offset="0.677083" stop-color="#CCCCCC"/>
			<stop offset="0.833333" stop-color="#A3A3A3"/>
		</linearGradient>
	</defs>
	<path id="Vector" d="M6 20C5.45 20 4.97 19.8 4.58 19.41C4.19 19.02 4 18.54 4 18C4 17.45 4.19 16.97 4.58 16.58C4.97 16.19 5.45 16 6 16C6.55 16 7.02 16.19 7.41 16.58C7.8 16.97 8 17.45 8 18C8 18.54 7.8 19.02 7.41 19.41C7.02 19.8 6.55 20 6 20ZM16 20C15.45 20 14.97 19.8 14.58 19.41C14.19 19.02 14 18.54 14 18C14 17.45 14.19 16.97 14.58 16.58C14.97 16.19 15.45 16 16 16C16.54 16 17.02 16.19 17.41 16.58C17.8 16.97 18 17.45 18 18C18 18.54 17.8 19.02 17.41 19.41C17.02 19.8 16.54 20 16 20ZM6 15C5.25 15 4.68 14.67 4.3 14.01C3.91 13.35 3.9 12.7 4.25 12.05L5.6 9.6L2 2L0.97 2C0.69 2 0.45 1.9 0.27 1.71C0.09 1.52 0 1.28 0 1C0 0.71 0.09 0.47 0.28 0.28C0.47 0.09 0.71 0 1 0L2.62 0C2.8 0 2.98 0.05 3.15 0.14C3.31 0.25 3.44 0.39 3.52 0.57L4.19 2L18.95 2C19.4 2 19.7 2.16 19.87 2.5C20.04 2.83 20.03 3.18 19.85 3.55L16.29 9.94C16.11 10.28 15.87 10.54 15.57 10.72C15.27 10.9 14.93 11 14.55 11L7.1 11L6 13L17.02 13C17.3 13 17.54 13.09 17.72 13.28C17.9 13.47 18 13.71 18 14C18 14.28 17.9 14.52 17.71 14.71C17.52 14.9 17.28 15 17 15L6 15Z" fill="url(#paint_linear_1_11162_0)" fill-opacity="1.000000" fill-rule="nonzero"/>
</svg>
