<svg width="61.056030" height="48.845215" viewBox="0 0 61.056 48.8452" fill="none" xmlns="http://www.w3.org/2000/svg" xmlns:xlink="http://www.w3.org/1999/xlink">
	<desc>
			Created with Pixso.
	</desc>
	<defs>
		<linearGradient x1="-8.977921" y1="-1.205605" x2="60.351593" y2="50.635719" id="paint_linear_1_139_0" gradientUnits="userSpaceOnUse">
			<stop offset="0.270833" stop-color="#A3A3A3"/>
			<stop offset="0.412103" stop-color="#CCCCCC"/>
			<stop offset="0.551716" stop-color="#FFFFFF"/>
			<stop offset="0.677083" stop-color="#CCCCCC"/>
			<stop offset="0.833333" stop-color="#A3A3A3"/>
		</linearGradient>
	</defs>
	<path id="Vector" d="M61.05 13.22L61.05 38.78C59.72 37.4 57.88 36.63 55.96 36.63L52.91 36.63L52.91 6.56C52.91 6.41 52.91 6.25 52.89 6.1L53.93 6.1C55.82 6.1 57.63 6.85 58.96 8.19C60.3 9.53 61.05 11.34 61.05 13.22L61.05 13.22ZM8.14 30.52L34.59 30.52L34.59 2.03L40.7 2.03L40.7 30.52L48.84 30.52C49.55 30.52 50.26 30.71 50.88 31.07L50.88 4.07C50.88 2.99 50.45 1.95 49.68 1.19C48.92 0.42 47.88 -0.01 46.8 0L10.17 0C7.47 0 4.89 1.07 2.98 2.98C1.07 4.89 0 7.47 0 10.17L0 34.6C1.91 32.04 4.93 30.52 8.14 30.52ZM55.96 38.66L8.14 38.66C7.41 38.66 6.74 39.05 6.37 39.68C6.01 40.31 6.01 41.09 6.37 41.72C6.74 42.35 7.41 42.73 8.14 42.73L55.96 42.73C56.52 42.73 56.98 43.19 56.98 43.75C56.98 44.31 56.52 44.77 55.96 44.77L8.14 44.77C6.68 44.77 5.34 43.99 4.61 42.73C3.88 41.48 3.88 39.92 4.61 38.66C5.34 37.4 6.68 36.63 8.14 36.63L48.84 36.63C49.57 36.63 50.24 36.24 50.6 35.61C50.97 34.98 50.97 34.21 50.6 33.58C50.24 32.95 49.57 32.56 48.84 32.56L8.14 32.56C5.23 32.56 2.54 34.11 1.09 36.63C-0.37 39.15 -0.37 42.25 1.09 44.77C2.54 47.29 5.23 48.84 8.14 48.84L55.96 48.84C57.78 48.84 59.46 47.87 60.37 46.3C61.28 44.72 61.28 42.78 60.37 41.21C59.46 39.63 57.78 38.66 55.96 38.66Z" fill="url(#paint_linear_1_139_0)" fill-opacity="1.000000" fill-rule="nonzero"/>
</svg>
