<svg width="55.711670" height="16.580566" viewBox="0 0 55.7117 16.5806" fill="none" xmlns="http://www.w3.org/2000/svg" xmlns:xlink="http://www.w3.org/1999/xlink">
	<desc>
			Created with Pixso.
	</desc>
	<defs>
		<linearGradient x1="31.344135" y1="38.310886" x2="29.427517" y2="-25.621477" id="paint_linear_1_11148_0" gradientUnits="userSpaceOnUse">
			<stop offset="0.270833" stop-color="#A3A3A3"/>
			<stop offset="0.412103" stop-color="#CCCCCC"/>
			<stop offset="0.551716" stop-color="#FFFFFF"/>
			<stop offset="0.677083" stop-color="#CCCCCC"/>
			<stop offset="0.833333" stop-color="#A3A3A3"/>
		</linearGradient>
	</defs>
	<path id="Vector" d="M0.39 5.91L8.61 10.43L4.28 9.6C6.28 10.86 9.06 12.19 12.8 13.62L21.42 13.44L16.85 15.01C19.11 15.66 21.7 16.13 24.41 16.38L29.39 13.36L26.64 16.53C29.45 16.65 32.31 16.53 35.02 16.1C37.86 15.65 40.54 14.84 42.74 13.57L43.32 16.49C44.64 14.86 45.43 13.1 45.81 11.13L47.26 13.86C48.25 11.92 48.42 10.2 47.87 8.12C50.67 6.79 53.18 4.97 55.71 3.18L54.76 1.85C40.21 13.74 22.42 12.81 10.23 8.09L10.88 6.58C21.83 10.75 33.43 10.91 44.75 5.75C43.63 4.62 42.39 3.66 41.11 2.9L37.02 6.38L39.66 2.11C38.73 1.69 37.81 1.36 36.91 1.16L35.49 5.15L35.62 0.95C34.72 0.85 33.87 0.88 33.06 1.06C28.22 2.13 23.31 3.08 16.97 1.65L18.8 5.5L14.58 1.01C13.51 0.66 12.32 0.36 11.34 0.21L14.18 3.54L8.44 0C7.72 0 7.01 0.04 6.32 0.11C3.88 0.4 1.74 1.09 0.62 2.56C0.05 3.29 -0.17 4.28 0.12 5.25C0.2 5.48 0.29 5.72 0.39 5.91Z" fill="url(#paint_linear_1_11148_0)" fill-opacity="1.000000" fill-rule="nonzero"/>
</svg>
