<svg width="60.000000" height="28.456299" viewBox="0 0 60 28.4563" fill="none" xmlns="http://www.w3.org/2000/svg" xmlns:xlink="http://www.w3.org/1999/xlink">
	<desc>
			Created with Pixso.
	</desc>
	<defs>
		<linearGradient x1="24.945847" y1="-0.525066" x2="59.647396" y2="22.052814" id="paint_linear_1_189_0" gradientUnits="userSpaceOnUse">
			<stop offset="0.270833" stop-color="#A3A3A3"/>
			<stop offset="0.412103" stop-color="#CCCCCC"/>
			<stop offset="0.551716" stop-color="#FFFFFF"/>
			<stop offset="0.677083" stop-color="#CCCCCC"/>
			<stop offset="0.833333" stop-color="#A3A3A3"/>
		</linearGradient>
		<linearGradient x1="-7.392063" y1="8.161911" x2="49.691128" y2="29.182190" id="paint_linear_1_190_0" gradientUnits="userSpaceOnUse">
			<stop offset="0.270833" stop-color="#A3A3A3"/>
			<stop offset="0.412103" stop-color="#CCCCCC"/>
			<stop offset="0.551716" stop-color="#FFFFFF"/>
			<stop offset="0.677083" stop-color="#CCCCCC"/>
			<stop offset="0.833333" stop-color="#A3A3A3"/>
		</linearGradient>
	</defs>
	<path id="Vector" d="M32.3 20.85C31.35 21.04 30.4 21.17 29.43 21.27C30.4 21.24 31.37 21.16 32.32 21.03C34.56 20.73 36.79 20.17 38.97 19.37C43.05 17.86 47.01 15.46 50.72 12.24C52.43 10.76 54.08 9.11 55.63 7.35C56.39 6.47 57.13 5.56 57.82 4.65C58.18 4.17 58.53 3.7 58.85 3.24C59.21 2.72 59.51 2.27 59.83 1.75C60.16 1.21 59.98 0.49 59.44 0.16C59.26 0.05 59.05 0 58.84 0C58.43 0 58.07 0.2 57.85 0.55C57.84 0.57 57.83 0.59 57.82 0.61C57.82 0.61 57.81 0.62 57.81 0.63C57.61 1.01 57.34 1.47 57.01 2.03C56.73 2.49 56.43 2.96 56.11 3.43C55.5 4.35 54.85 5.26 54.17 6.15C52.79 7.95 51.3 9.63 49.74 11.17C46.33 14.51 42.63 17.08 38.74 18.8C36.65 19.73 34.48 20.42 32.3 20.85L32.3 20.85Z" fill="url(#paint_linear_1_189_0)" fill-opacity="1.000000" fill-rule="nonzero"/>
	<path id="Vector" d="M39.16 19.88C36.97 20.69 34.7 21.27 32.4 21.57C31.08 21.75 29.75 21.83 28.42 21.83C27.43 21.83 26.45 21.79 25.47 21.69C20.88 21.25 16.46 19.79 12.41 17.75C16.59 19.54 21.04 20.7 25.53 20.84C25.86 20.85 26.2 20.86 26.54 20.86C28.44 20.86 30.34 20.68 32.19 20.31C34.37 19.88 36.5 19.2 38.52 18.3C42.48 16.55 46.03 13.99 49.13 11C47.68 10.14 44.25 8.89 38.82 11.59C35.57 13.2 31.22 14.2 26.85 14.58C27.37 14.93 27.91 15.25 28.47 15.53C29.15 15.86 29.86 16.14 30.6 16.33C31.34 16.53 32.11 16.65 32.89 16.66C32.13 16.86 31.31 16.86 30.52 16.79C29.72 16.69 28.93 16.5 28.18 16.21C27.19 15.84 26.28 15.31 25.44 14.68C23.95 14.77 22.47 14.78 21.05 14.72C21.31 14.99 21.58 15.24 21.87 15.47C22.46 15.96 23.1 16.4 23.81 16.74C23.03 16.6 22.29 16.26 21.6 15.85C21.04 15.52 20.52 15.12 20.05 14.67C16.99 14.46 14.26 13.91 12.31 13C6.41 10.24 2.58 6.28 0 10.47C0 10.47 5.1 21.09 14.08 25.59C14.71 25.2 15.32 24.76 15.89 24.23C15.75 24.61 15.55 24.96 15.32 25.3C15.17 25.52 15 25.74 14.83 25.94C16.75 26.81 18.71 27.44 20.68 27.84C21.71 27.68 22.72 27.42 23.7 27.04C24.39 26.77 25.06 26.45 25.7 26.06C26.35 25.66 26.98 25.22 27.55 24.67C27.42 25.05 27.21 25.4 26.99 25.74C26.76 26.08 26.5 26.39 26.22 26.69C25.65 27.28 24.99 27.79 24.27 28.21C24.2 28.26 24.12 28.3 24.04 28.34C27.77 28.66 31.45 28.27 34.81 27.38C35.5 26.96 36.16 26.48 36.77 25.94C37.32 25.45 37.84 24.92 38.32 24.33C38.79 23.74 39.22 23.1 39.58 22.38C39.58 22.79 39.51 23.19 39.41 23.59C39.32 23.98 39.18 24.37 39.02 24.75C38.78 25.29 38.48 25.81 38.13 26.3C41.54 24.98 44.49 23.13 46.62 21.03C46.62 20.85 46.62 20.67 46.61 20.48C46.59 19.73 46.5 18.96 46.31 18.19C46.57 18.49 46.78 18.85 46.96 19.21C47.13 19.54 47.27 19.88 47.38 20.23C49.31 18.07 50.38 15.68 50.26 13.36C46.93 16.1 43.2 18.39 39.16 19.88L39.16 19.88Z" fill="url(#paint_linear_1_190_0)" fill-opacity="1.000000" fill-rule="nonzero"/>
</svg>
