<svg width="26.284416" height="26.284424" viewBox="0 0 26.2844 26.2844" fill="none" xmlns="http://www.w3.org/2000/svg" xmlns:xlink="http://www.w3.org/1999/xlink">
	<desc>
			Created with Pixso.
	</desc>
	<defs>
		<linearGradient x1="-3.864969" y1="-0.648758" x2="25.981163" y2="27.247910" id="paint_linear_1_57_0" gradientUnits="userSpaceOnUse">
			<stop offset="0.270833" stop-color="#A3A3A3"/>
			<stop offset="0.412103" stop-color="#CCCCCC"/>
			<stop offset="0.551716" stop-color="#FFFFFF"/>
			<stop offset="0.677083" stop-color="#CCCCCC"/>
			<stop offset="0.833333" stop-color="#A3A3A3"/>
		</linearGradient>
	</defs>
	<path id="Vector" d="M13.14 0C16.71 0 17.15 0.01 18.55 0.07C19.95 0.14 20.91 0.36 21.75 0.68C22.61 1.02 23.34 1.47 24.07 2.2C24.74 2.86 25.26 3.65 25.59 4.53C25.91 5.37 26.13 6.32 26.2 7.72C26.26 9.12 26.28 9.57 26.28 13.14C26.28 16.71 26.27 17.15 26.2 18.55C26.13 19.95 25.91 20.91 25.59 21.75C25.26 22.62 24.74 23.42 24.07 24.07C23.42 24.74 22.62 25.26 21.75 25.59C20.91 25.91 19.95 26.13 18.55 26.2C17.15 26.26 16.71 26.28 13.14 26.28C9.57 26.28 9.12 26.27 7.72 26.2C6.32 26.13 5.37 25.91 4.53 25.59C3.65 25.26 2.86 24.74 2.2 24.07C1.53 23.42 1.01 22.62 0.68 21.75C0.36 20.91 0.14 19.95 0.07 18.55C0.01 17.15 0 16.71 0 13.14C0 9.57 0.01 9.12 0.07 7.72C0.14 6.32 0.36 5.37 0.68 4.53C1.01 3.65 1.53 2.86 2.2 2.2C2.86 1.53 3.65 1.01 4.53 0.68C5.37 0.36 6.32 0.14 7.72 0.07C9.12 0.01 9.57 0 13.14 0ZM13.14 6.57C11.39 6.57 9.72 7.26 8.49 8.49C7.26 9.72 6.57 11.39 6.57 13.14C6.57 14.88 7.26 16.55 8.49 17.78C9.72 19.02 11.39 19.71 13.14 19.71C14.88 19.71 16.55 19.02 17.78 17.78C19.02 16.55 19.71 14.88 19.71 13.14C19.71 11.39 19.02 9.72 17.78 8.49C16.55 7.26 14.88 6.57 13.14 6.57ZM21.68 6.24C21.68 5.8 21.51 5.38 21.2 5.08C20.89 4.77 20.47 4.59 20.04 4.59C19.6 4.59 19.18 4.77 18.88 5.08C18.57 5.38 18.39 5.8 18.39 6.24C18.39 6.67 18.57 7.09 18.88 7.4C19.18 7.71 19.6 7.88 20.04 7.88C20.47 7.88 20.89 7.71 21.2 7.4C21.51 7.09 21.68 6.67 21.68 6.24ZM13.14 9.19C14.18 9.19 15.19 9.61 15.93 10.35C16.66 11.09 17.08 12.09 17.08 13.14C17.08 14.18 16.66 15.19 15.93 15.93C15.19 16.66 14.18 17.08 13.14 17.08C12.09 17.08 11.09 16.66 10.35 15.93C9.61 15.19 9.19 14.18 9.19 13.14C9.19 12.09 9.61 11.09 10.35 10.35C11.09 9.61 12.09 9.19 13.14 9.19Z" fill="url(#paint_linear_1_57_0)" fill-opacity="1.000000" fill-rule="nonzero"/>
</svg>
