<svg width="20.000000" height="20.000000" viewBox="0 0 20 20" fill="none" xmlns="http://www.w3.org/2000/svg" xmlns:xlink="http://www.w3.org/1999/xlink">
	<desc>
			Created with Pixso.
	</desc>
	<defs>
		<linearGradient x1="-2.940880" y1="-0.493645" x2="19.769249" y2="20.733139" id="paint_linear_1_11168_0" gradientUnits="userSpaceOnUse">
			<stop offset="0.270833" stop-color="#A3A3A3"/>
			<stop offset="0.412103" stop-color="#CCCCCC"/>
			<stop offset="0.551716" stop-color="#FFFFFF"/>
			<stop offset="0.677083" stop-color="#CCCCCC"/>
			<stop offset="0.833333" stop-color="#A3A3A3"/>
		</linearGradient>
	</defs>
	<path id="Vector" d="M10 20C8.63 20 7.34 19.73 6.12 19.21C4.9 18.68 3.84 17.97 2.93 17.06C2.02 16.15 1.31 15.09 0.78 13.87C0.26 12.65 0 11.36 0 10C0 8.61 0.26 7.32 0.78 6.11C1.31 4.9 2.02 3.84 2.93 2.93C3.84 2.02 4.9 1.31 6.12 0.78C7.34 0.26 8.63 0 10 0C11.38 0 12.67 0.26 13.88 0.78C15.09 1.31 16.15 2.02 17.06 2.93C17.97 3.84 18.68 4.9 19.21 6.11C19.73 7.32 20 8.61 20 10C20 11.36 19.73 12.65 19.21 13.87C18.68 15.09 17.97 16.15 17.06 17.06C16.15 17.97 15.09 18.68 13.88 19.21C12.67 19.73 11.38 20 10 20ZM10 17.95C10.43 17.35 10.8 16.72 11.12 16.07C11.44 15.42 11.7 14.73 11.9 14L8.1 14C8.3 14.73 8.55 15.42 8.87 16.07C9.19 16.72 9.56 17.35 10 17.95ZM7.4 17.54C7.1 17 6.83 16.42 6.61 15.83C6.38 15.24 6.2 14.63 6.05 14L3.1 14C3.58 14.83 4.18 15.55 4.91 16.17C5.63 16.79 6.46 17.25 7.4 17.54ZM12.6 17.54C13.53 17.25 14.36 16.79 15.08 16.17C15.81 15.55 16.41 14.83 16.9 14L13.95 14C13.8 14.63 13.61 15.24 13.38 15.83C13.16 16.42 12.9 17 12.6 17.54ZM2.25 12L5.65 12C5.6 11.66 5.56 11.33 5.53 11.01C5.51 10.68 5.5 10.35 5.5 10C5.5 9.64 5.51 9.31 5.53 8.98C5.56 8.66 5.6 8.33 5.65 8L2.25 8C2.16 8.33 2.1 8.66 2.06 8.98C2.02 9.31 2 9.64 2 10C2 10.35 2.02 10.68 2.06 11.01C2.1 11.33 2.16 11.66 2.25 12ZM7.65 12L12.35 12C12.4 11.66 12.43 11.33 12.46 11.01C12.48 10.68 12.5 10.35 12.5 10C12.5 9.64 12.48 9.31 12.46 8.98C12.43 8.66 12.4 8.33 12.35 8L7.65 8C7.6 8.33 7.56 8.66 7.53 8.98C7.51 9.31 7.5 9.64 7.5 10C7.5 10.35 7.51 10.68 7.53 11.01C7.56 11.33 7.6 11.66 7.65 12ZM14.35 12L17.75 12C17.83 11.66 17.89 11.33 17.93 11.01C17.97 10.68 18 10.35 18 10C18 9.64 17.97 9.31 17.93 8.98C17.89 8.66 17.83 8.33 17.75 8L14.35 8C14.4 8.33 14.43 8.66 14.46 8.98C14.48 9.31 14.5 9.64 14.5 10C14.5 10.35 14.48 10.68 14.46 11.01C14.43 11.33 14.4 11.66 14.35 12ZM13.95 6L16.9 6C16.41 5.16 15.81 4.44 15.08 3.82C14.36 3.2 13.53 2.75 12.6 2.44C12.9 3 13.16 3.57 13.38 4.16C13.61 4.75 13.8 5.36 13.95 6ZM8.1 6L11.9 6C11.7 5.26 11.44 4.57 11.12 3.92C10.8 3.27 10.43 2.64 10 2.05C9.56 2.64 9.19 3.27 8.87 3.92C8.55 4.57 8.3 5.26 8.1 6ZM3.1 6L6.05 6C6.2 5.36 6.38 4.75 6.61 4.16C6.83 3.57 7.1 3 7.4 2.44C6.46 2.75 5.63 3.2 4.91 3.82C4.18 4.44 3.58 5.16 3.1 6Z" fill="url(#paint_linear_1_11168_0)" fill-opacity="1.000000" fill-rule="nonzero"/>
</svg>
