<svg width="45.820557" height="45.000000" viewBox="0 0 45.8206 45" fill="none" xmlns="http://www.w3.org/2000/svg" xmlns:xlink="http://www.w3.org/1999/xlink">
	<desc>
			Created with Pixso.
	</desc>
	<defs>
		<linearGradient x1="-6.737640" y1="-1.110703" x2="45.291931" y2="46.649559" id="paint_linear_1_168_0" gradientUnits="userSpaceOnUse">
			<stop offset="0.270833" stop-color="#A3A3A3"/>
			<stop offset="0.412103" stop-color="#CCCCCC"/>
			<stop offset="0.551716" stop-color="#FFFFFF"/>
			<stop offset="0.677083" stop-color="#CCCCCC"/>
			<stop offset="0.833333" stop-color="#A3A3A3"/>
		</linearGradient>
	</defs>
	<path id="Vector" d="M45.81 20.2C45.81 17.56 44.76 15.04 42.89 13.18C41.03 11.32 38.51 10.27 35.88 10.26C35.67 10.26 35.47 10.28 35.28 10.28L35.28 10.28C34.32 6.34 31.63 3.04 27.97 1.3C24.3 -0.44 20.04 -0.44 16.38 1.31C12.72 3.07 10.04 6.37 9.09 10.32C6.6 10.58 4.3 11.74 2.62 13.6C0.94 15.45 0 17.86 6.1e-5 20.36C-0.01 22.55 0.71 24.68 2.05 26.42C1.82 26.52 1.6 26.62 1.39 26.72L1.39 26.72C1.14 26.85 0.95 27.07 0.86 27.34C0.77 27.6 0.8 27.88 0.94 28.12C5.29 36.33 11.86 36.66 15 36.29L15 36.29C14.24 38.62 12.72 40.63 10.69 42C8.61 43.1 6.16 43.25 3.96 42.41C3.41 42.24 2.84 42.54 2.66 43.09C2.5 43.62 2.81 44.19 3.34 44.36C4.55 44.77 5.82 44.98 7.1 44.99C8.73 45.01 10.33 44.58 11.74 43.76C14.03 42.27 15.78 40.07 16.73 37.5C20.52 43.19 27.2 43.99 30.62 43.99C31.37 44.01 32.12 43.96 32.86 43.87C33.39 43.78 33.76 43.31 33.72 42.78C34.43 42.98 35.15 43.07 35.88 43.07C38.23 43.06 40.48 42.12 42.13 40.45C43.79 38.79 44.71 36.54 44.71 34.19C44.7 31.84 43.76 29.59 42.1 27.94C44.45 26.05 45.82 23.21 45.82 20.2L45.81 20.2ZM42.65 34.22L42.65 34.22C42.66 36.02 41.94 37.74 40.67 39.02C39.4 40.29 37.68 41.01 35.88 41.01C35.01 41.02 34.15 40.84 33.35 40.5C32.86 37.63 31.36 35.03 29.12 33.17C27.76 32.09 26.14 31.39 24.42 31.14C28.71 25.41 25.96 17.96 25.84 17.61C25.65 17.1 25.09 16.83 24.57 16.99C16.87 19.4 14.71 24.04 14.14 26.89L14.14 26.89C11.16 24.97 7.46 24.53 4.12 25.72C2.78 24.26 2.04 22.34 2.05 20.36C2.05 18.25 2.88 16.23 4.36 14.73C5.84 13.22 7.84 12.36 9.95 12.31C10.45 12.32 10.87 11.96 10.96 11.47C11.59 7.91 13.86 4.86 17.1 3.24C20.34 1.63 24.15 1.65 27.37 3.29C30.59 4.93 32.84 8.01 33.44 11.57C33.47 11.85 33.63 12.1 33.87 12.25C34.09 12.41 34.36 12.48 34.63 12.44C35.04 12.35 35.46 12.31 35.88 12.31C38.2 12.31 40.4 13.33 41.9 15.1C43.4 16.88 44.04 19.22 43.65 21.51C43.26 23.79 41.88 25.79 39.88 26.97C39.58 27.15 39.39 27.47 39.38 27.82C39.37 28.16 39.53 28.5 39.82 28.7C41.6 29.97 42.65 32.03 42.65 34.22L42.65 34.22Z" fill="url(#paint_linear_1_168_0)" fill-opacity="1.000000" fill-rule="nonzero"/>
</svg>
