<svg width="25.919235" height="25.919189" viewBox="0 0 25.9192 25.9192" fill="none" xmlns="http://www.w3.org/2000/svg" xmlns:xlink="http://www.w3.org/1999/xlink">
	<desc>
			Created with Pixso.
	</desc>
	<defs>
		<linearGradient x1="-3.811266" y1="-0.639744" x2="25.620199" y2="26.869362" id="paint_linear_3_1_0" gradientUnits="userSpaceOnUse">
			<stop offset="0.270833" stop-color="#A3A3A3"/>
			<stop offset="0.412103" stop-color="#CCCCCC"/>
			<stop offset="0.551716" stop-color="#FFFFFF"/>
			<stop offset="0.677083" stop-color="#CCCCCC"/>
			<stop offset="0.833333" stop-color="#A3A3A3"/>
		</linearGradient>
	</defs>
	<path id="Vector" d="M3.7 0C2.72 0 1.77 0.39 1.08 1.08C0.39 1.77 0 2.72 0 3.7L0 22.21C0 23.19 0.39 24.14 1.08 24.83C1.77 25.52 2.72 25.91 3.7 25.91L22.21 25.91C23.19 25.91 24.14 25.52 24.83 24.83C25.52 24.14 25.91 23.19 25.91 22.21L25.91 3.7C25.91 2.72 25.52 1.77 24.83 1.08C24.14 0.39 23.19 0 22.21 0L3.7 0ZM5.74 7.95C6.32 7.95 6.89 7.72 7.3 7.3C7.72 6.89 7.95 6.32 7.95 5.74C7.95 5.15 7.72 4.59 7.3 4.17C6.89 3.76 6.32 3.53 5.74 3.53C5.15 3.53 4.59 3.76 4.17 4.17C3.76 4.59 3.53 5.15 3.53 5.74C3.53 6.32 3.76 6.89 4.17 7.3C4.59 7.72 5.15 7.95 5.74 7.95ZM7.59 21.87L7.59 9.69L3.89 9.69L3.89 21.87L7.59 21.87ZM10.05 9.69L13.75 9.69L13.75 11.32C14.3 10.46 15.5 9.31 17.73 9.31C20.39 9.31 21.84 11.07 21.84 14.43C21.84 14.59 21.85 15.33 21.85 15.33L21.85 21.86L18.15 21.86L18.15 15.33C18.15 14.43 17.96 12.67 15.96 12.67C13.97 12.67 13.8 14.88 13.75 16.34L13.75 21.86L10.05 21.86L10.05 9.69Z" fill="url(#paint_linear_3_1_0)" fill-opacity="1.000000" fill-rule="evenodd"/>
</svg>
