<svg width="51.338745" height="66.000000" viewBox="0 0 51.3387 66" fill="none" xmlns="http://www.w3.org/2000/svg" xmlns:xlink="http://www.w3.org/1999/xlink">
	<desc>
			Created with Pixso.
	</desc>
	<defs>
		<linearGradient x1="-7.549042" y1="-1.629028" x2="50.746372" y2="68.419350" id="paint_linear_1_136_0" gradientUnits="userSpaceOnUse">
			<stop offset="0.270833" stop-color="#A3A3A3"/>
			<stop offset="0.412103" stop-color="#CCCCCC"/>
			<stop offset="0.551716" stop-color="#FFFFFF"/>
			<stop offset="0.677083" stop-color="#CCCCCC"/>
			<stop offset="0.833333" stop-color="#A3A3A3"/>
		</linearGradient>
	</defs>
	<path id="Vector" d="M51.32 7.34L51.32 35.09L51.32 49.01L51.32 55.97C51.32 58.29 51.55 60.45 50.15 62.62C48.85 64.63 46.67 65.88 44.28 65.97C43.14 66.02 42 65.98 40.86 65.98L37.4 65.98L23.57 65.98L9.7 65.98C7.21 65.98 5.37 66.24 3.1 64.63C1.16 63.26 0.01 61.03 0.01 58.65L0.01 30.9L0.01 16.98L0.01 10.02C0.01 7.7 -0.23 5.54 1.18 3.37C2.48 1.36 4.66 0.11 7.04 0.02C8.19 -0.03 9.33 0.01 10.47 0.01L13.93 0.01L27.76 0.01L41.63 0.01C44.12 0.01 45.95 -0.25 48.22 1.36C50.17 2.73 51.32 4.96 51.32 7.34L51.32 7.34ZM10.51 8.48L10.51 8.23L10.51 8.1C10.51 8.04 10.46 8.07 10.42 8.07C10.26 8.08 10.1 8.1 9.95 8.14C9.62 8.22 9.33 8.35 9.06 8.55C8.47 8.99 8.19 9.47 8.09 10.2C8.08 10.28 8.08 10.36 8.07 10.45C8.07 10.58 8.19 10.52 8.27 10.52C8.31 10.52 8.48 10.55 8.48 10.47C8.48 10.4 8.49 10.33 8.5 10.26C8.54 9.92 8.65 9.64 8.84 9.36C9.22 8.81 9.85 8.48 10.51 8.48ZM10.51 25.58L10.51 25.33L10.51 25.2C10.51 25.14 10.46 25.18 10.42 25.18C10.26 25.18 10.1 25.2 9.95 25.24C9.62 25.32 9.33 25.45 9.06 25.65C8.47 26.09 8.19 26.57 8.09 27.3C8.08 27.38 8.08 27.47 8.07 27.55C8.07 27.68 8.19 27.62 8.27 27.62C8.31 27.62 8.48 27.66 8.48 27.57C8.48 27.5 8.49 27.43 8.5 27.37C8.54 27.03 8.65 26.74 8.84 26.46C9.22 25.91 9.85 25.58 10.51 25.58ZM10.51 23.3C9.85 23.3 9.22 22.98 8.84 22.43C8.65 22.15 8.54 21.86 8.49 21.52C8.49 21.45 8.48 21.38 8.48 21.31C8.48 21.23 8.31 21.27 8.27 21.27C8.19 21.27 8.07 21.21 8.07 21.34C8.07 21.42 8.08 21.5 8.09 21.59C8.19 22.31 8.47 22.8 9.06 23.23C9.33 23.43 9.62 23.56 9.95 23.64C10.1 23.68 10.26 23.7 10.42 23.71C10.46 23.71 10.52 23.75 10.52 23.68L10.52 23.56C10.52 23.47 10.51 23.39 10.51 23.3ZM10.51 42.69L10.51 42.43L10.51 42.3C10.51 42.24 10.46 42.28 10.42 42.28C10.26 42.29 10.1 42.31 9.95 42.35C9.62 42.42 9.33 42.56 9.06 42.76C8.47 43.19 8.19 43.67 8.09 44.4C8.08 44.49 8.08 44.57 8.07 44.65C8.07 44.79 8.19 44.72 8.27 44.72C8.31 44.72 8.48 44.76 8.48 44.68C8.48 44.61 8.49 44.54 8.5 44.47C8.54 44.13 8.65 43.84 8.84 43.56C9.22 43.01 9.85 42.69 10.51 42.69ZM10.51 40.41C9.85 40.41 9.22 40.08 8.84 39.53C8.65 39.25 8.54 38.96 8.49 38.62C8.49 38.55 8.48 38.48 8.48 38.41C8.48 38.33 8.31 38.37 8.27 38.37C8.19 38.37 8.07 38.31 8.07 38.44C8.07 38.52 8.08 38.6 8.09 38.69C8.19 39.42 8.47 39.9 9.06 40.33C9.33 40.54 9.62 40.67 9.95 40.74C10.1 40.78 10.26 40.8 10.42 40.81C10.46 40.81 10.52 40.85 10.52 40.79L10.52 40.66C10.52 40.57 10.51 40.49 10.51 40.41ZM10.51 57.51C9.85 57.51 9.22 57.18 8.84 56.63C8.65 56.35 8.54 56.07 8.49 55.72C8.49 55.65 8.48 55.59 8.48 55.52C8.48 55.43 8.31 55.47 8.27 55.47C8.19 55.47 8.07 55.41 8.07 55.54C8.07 55.62 8.08 55.71 8.09 55.79C8.19 56.52 8.47 57 9.06 57.44C9.33 57.64 9.62 57.77 9.95 57.85C10.1 57.89 10.26 57.91 10.42 57.91C10.46 57.91 10.52 57.95 10.52 57.89L10.52 57.76C10.52 57.68 10.51 57.59 10.51 57.51ZM40.81 57.51L40.81 57.76L40.81 57.89C40.81 57.95 40.87 57.92 40.9 57.91C41.07 57.91 41.22 57.89 41.38 57.85C41.71 57.77 41.99 57.64 42.26 57.44C42.86 57 43.14 56.52 43.23 55.79C43.25 55.71 43.25 55.63 43.25 55.54C43.26 55.41 43.14 55.47 43.06 55.47C43.01 55.47 42.85 55.44 42.85 55.52C42.85 55.59 42.84 55.66 42.83 55.73C42.79 56.07 42.68 56.35 42.48 56.63C42.1 57.18 41.48 57.51 40.81 57.51ZM40.81 40.41L40.81 40.66L40.81 40.79C40.81 40.85 40.87 40.81 40.9 40.81C41.07 40.81 41.22 40.78 41.38 40.75C41.71 40.67 41.99 40.54 42.26 40.33C42.86 39.9 43.14 39.42 43.23 38.69C43.25 38.61 43.25 38.52 43.25 38.44C43.26 38.31 43.14 38.37 43.06 38.37C43.01 38.37 42.85 38.33 42.85 38.41C42.85 38.48 42.84 38.55 42.83 38.62C42.79 38.96 42.68 39.25 42.48 39.53C42.1 40.08 41.48 40.41 40.81 40.41ZM40.81 42.69C41.48 42.69 42.1 43.01 42.48 43.56C42.68 43.84 42.79 44.13 42.83 44.47C42.84 44.54 42.85 44.61 42.85 44.68C42.85 44.76 43.01 44.72 43.06 44.72C43.13 44.72 43.26 44.79 43.25 44.65C43.25 44.57 43.24 44.49 43.23 44.4C43.14 43.68 42.85 43.19 42.26 42.76C41.99 42.56 41.71 42.43 41.38 42.35C41.22 42.31 41.06 42.29 40.9 42.28C40.87 42.28 40.81 42.24 40.81 42.3L40.81 42.43C40.81 42.52 40.81 42.6 40.81 42.69ZM40.81 23.3L40.81 23.56L40.81 23.68C40.81 23.75 40.87 23.71 40.9 23.71C41.07 23.7 41.22 23.68 41.38 23.64C41.71 23.56 41.99 23.43 42.26 23.23C42.86 22.8 43.14 22.31 43.23 21.58C43.25 21.5 43.25 21.42 43.25 21.33C43.26 21.2 43.14 21.27 43.06 21.27C43.01 21.27 42.85 21.23 42.85 21.31C42.85 21.38 42.84 21.45 42.83 21.52C42.79 21.86 42.68 22.15 42.48 22.43C42.1 22.98 41.48 23.3 40.81 23.3ZM40.81 25.58C41.48 25.58 42.1 25.91 42.48 26.46C42.68 26.74 42.79 27.03 42.83 27.37C42.84 27.44 42.85 27.5 42.85 27.57C42.85 27.66 43.01 27.62 43.06 27.62C43.13 27.62 43.26 27.68 43.25 27.55C43.25 27.47 43.24 27.38 43.23 27.3C43.14 26.57 42.85 26.09 42.26 25.65C41.99 25.45 41.71 25.32 41.38 25.24C41.22 25.2 41.06 25.18 40.9 25.18C40.87 25.18 40.81 25.14 40.81 25.2L40.81 25.33C40.81 25.41 40.81 25.5 40.81 25.58ZM40.81 8.48C41.48 8.48 42.1 8.81 42.48 9.36C42.68 9.64 42.79 9.92 42.83 10.26C42.84 10.33 42.85 10.4 42.85 10.47C42.85 10.56 43.01 10.52 43.06 10.52C43.13 10.52 43.26 10.58 43.25 10.45C43.25 10.37 43.24 10.28 43.23 10.2C43.14 9.47 42.85 8.99 42.26 8.55C41.99 8.35 41.71 8.22 41.38 8.14C41.22 8.1 41.06 8.08 40.9 8.07C40.87 8.07 40.81 8.04 40.81 8.1L40.81 8.23C40.81 8.31 40.81 8.4 40.81 8.48ZM28.84 57.51C28.17 57.51 27.55 57.18 27.17 56.63C26.97 56.35 26.86 56.07 26.82 55.72C26.81 55.66 26.81 55.59 26.8 55.52C26.8 55.43 26.64 55.47 26.59 55.47C26.52 55.47 26.39 55.41 26.4 55.54C26.4 55.62 26.41 55.71 26.42 55.79C26.51 56.52 26.8 57 27.39 57.44C27.66 57.64 27.94 57.77 28.27 57.85C28.43 57.89 28.59 57.91 28.75 57.91C28.78 57.91 28.84 57.95 28.84 57.89L28.84 57.76L28.84 57.51ZM22.49 57.51L22.49 57.76L22.49 57.89C22.49 57.95 22.55 57.92 22.58 57.92C22.74 57.91 22.9 57.89 23.06 57.85C23.39 57.77 23.67 57.64 23.94 57.44C24.53 57 24.82 56.52 24.91 55.79C24.92 55.71 24.93 55.63 24.93 55.54C24.93 55.41 24.81 55.47 24.74 55.47C24.69 55.47 24.53 55.44 24.52 55.52C24.52 55.59 24.52 55.66 24.51 55.73C24.47 56.07 24.36 56.35 24.16 56.63C23.78 57.18 23.15 57.51 22.49 57.51ZM28.84 42.69L28.84 42.43L28.84 42.31C28.84 42.24 28.78 42.28 28.75 42.28C28.59 42.29 28.43 42.31 28.27 42.35C27.94 42.43 27.66 42.56 27.39 42.76C26.8 43.19 26.51 43.68 26.42 44.41C26.4 44.49 26.4 44.57 26.4 44.66C26.39 44.79 26.52 44.72 26.59 44.72C26.64 44.72 26.8 44.76 26.8 44.68C26.81 44.61 26.81 44.54 26.82 44.47C26.86 44.13 26.97 43.84 27.17 43.56C27.55 43.01 28.17 42.69 28.84 42.69ZM28.84 40.41C28.17 40.41 27.55 40.08 27.17 39.53C26.97 39.25 26.86 38.96 26.82 38.62C26.81 38.55 26.81 38.48 26.8 38.41C26.8 38.33 26.64 38.37 26.59 38.37C26.52 38.37 26.39 38.31 26.4 38.44C26.4 38.52 26.41 38.6 26.42 38.69C26.51 39.42 26.8 39.9 27.39 40.33C27.66 40.54 27.94 40.67 28.27 40.75C28.43 40.78 28.59 40.81 28.75 40.81C28.78 40.81 28.84 40.85 28.84 40.79L28.84 40.66L28.84 40.41ZM22.49 40.41L22.49 40.66L22.49 40.79C22.49 40.85 22.55 40.81 22.58 40.81C22.74 40.81 22.9 40.79 23.06 40.75C23.39 40.67 23.67 40.54 23.94 40.34C24.53 39.9 24.82 39.42 24.91 38.69C24.92 38.61 24.93 38.52 24.93 38.44C24.93 38.31 24.81 38.37 24.74 38.37C24.69 38.37 24.53 38.33 24.52 38.42C24.52 38.49 24.52 38.56 24.51 38.62C24.47 38.96 24.36 39.25 24.16 39.53C23.78 40.08 23.15 40.41 22.49 40.41ZM22.49 42.69C23.15 42.69 23.78 43.01 24.16 43.56C24.36 43.84 24.46 44.13 24.51 44.47C24.52 44.54 24.52 44.61 24.52 44.68C24.52 44.76 24.69 44.72 24.73 44.72C24.81 44.72 24.93 44.79 24.93 44.66C24.93 44.57 24.92 44.49 24.91 44.4C24.81 43.68 24.53 43.2 23.94 42.76C23.67 42.56 23.38 42.43 23.05 42.35C22.9 42.31 22.74 42.29 22.58 42.28C22.54 42.28 22.49 42.24 22.49 42.31L22.49 42.43C22.49 42.52 22.49 42.6 22.49 42.69ZM28.84 25.58L28.84 25.33L28.84 25.2C28.84 25.14 28.78 25.18 28.75 25.18C28.59 25.18 28.43 25.2 28.27 25.24C27.94 25.32 27.66 25.45 27.39 25.65C26.8 26.09 26.51 26.57 26.42 27.3C26.4 27.38 26.4 27.47 26.4 27.55C26.39 27.68 26.52 27.62 26.59 27.62C26.64 27.62 26.8 27.66 26.8 27.57C26.81 27.5 26.81 27.43 26.82 27.37C26.86 27.03 26.97 26.74 27.17 26.46C27.55 25.91 28.17 25.58 28.84 25.58ZM28.84 23.3C28.17 23.3 27.55 22.98 27.17 22.43C26.97 22.15 26.86 21.86 26.82 21.52C26.81 21.45 26.81 21.38 26.8 21.31C26.8 21.23 26.64 21.27 26.59 21.27C26.52 21.27 26.39 21.21 26.4 21.34C26.4 21.42 26.41 21.5 26.42 21.59C26.51 22.31 26.8 22.8 27.39 23.23C27.66 23.43 27.94 23.56 28.27 23.64C28.43 23.68 28.59 23.7 28.75 23.71C28.78 23.71 28.84 23.75 28.84 23.68L28.84 23.56L28.84 23.3ZM22.49 23.3L22.49 23.56L22.49 23.68C22.49 23.75 22.55 23.71 22.58 23.71C22.74 23.7 22.9 23.68 23.06 23.64C23.39 23.56 23.67 23.43 23.94 23.23C24.53 22.8 24.82 22.31 24.91 21.58C24.92 21.5 24.93 21.42 24.93 21.33C24.93 21.2 24.81 21.27 24.74 21.27C24.69 21.27 24.53 21.23 24.52 21.31C24.52 21.38 24.52 21.45 24.51 21.52C24.47 21.86 24.36 22.15 24.16 22.43C23.78 22.98 23.15 23.3 22.49 23.3ZM22.49 25.58C23.15 25.58 23.78 25.91 24.16 26.46C24.36 26.74 24.46 27.03 24.51 27.37C24.52 27.44 24.52 27.5 24.52 27.57C24.52 27.66 24.69 27.62 24.73 27.62C24.81 27.62 24.93 27.68 24.93 27.55C24.93 27.47 24.92 27.38 24.91 27.3C24.81 26.57 24.53 26.09 23.94 25.65C23.67 25.45 23.38 25.32 23.05 25.24C22.9 25.2 22.74 25.18 22.58 25.18C22.54 25.18 22.49 25.14 22.49 25.2L22.49 25.33C22.49 25.41 22.49 25.5 22.49 25.58ZM22.49 8.48C23.15 8.48 23.78 8.81 24.16 9.36C24.36 9.64 24.46 9.92 24.51 10.26C24.52 10.33 24.52 10.4 24.52 10.47C24.52 10.56 24.69 10.52 24.73 10.52C24.81 10.52 24.93 10.58 24.93 10.45C24.93 10.37 24.92 10.28 24.91 10.2C24.81 9.47 24.53 8.99 23.94 8.55C23.67 8.35 23.38 8.22 23.05 8.14C22.9 8.1 22.74 8.08 22.58 8.07C22.54 8.07 22.49 8.04 22.49 8.1L22.49 8.23C22.49 8.31 22.49 8.4 22.49 8.48ZM28.84 8.48L28.84 8.23L28.84 8.1C28.84 8.04 28.78 8.07 28.75 8.07C28.59 8.08 28.43 8.1 28.27 8.14C27.94 8.22 27.66 8.35 27.39 8.55C26.8 8.99 26.51 9.47 26.42 10.2C26.4 10.28 26.4 10.36 26.4 10.45C26.39 10.58 26.52 10.52 26.59 10.52C26.64 10.52 26.8 10.55 26.8 10.47C26.81 10.4 26.81 10.33 26.82 10.26C26.86 9.92 26.97 9.64 27.17 9.36C27.55 8.81 28.17 8.48 28.84 8.48ZM26.4 57.92L24.93 57.92L24.93 59.38L26.4 59.38L26.4 57.92ZM26.4 40.81L24.93 40.81L24.93 42.28L26.4 42.28L26.4 40.81ZM6.61 23.71L6.61 25.18L8.07 25.18L8.07 23.71L6.61 23.71ZM26.4 23.71L24.93 23.71L24.93 25.18L26.4 25.18L26.4 23.71ZM44.72 40.81L43.26 40.81L43.26 42.28L44.72 42.28L44.72 40.81ZM6.61 40.81L6.61 42.28L8.07 42.28L8.07 40.81L6.61 40.81ZM44.72 23.71L43.26 23.71L43.26 25.18L44.72 25.18L44.72 23.71ZM26.4 6.61L24.93 6.61L24.93 8.07L26.4 8.07L26.4 6.61ZM6.61 6.61L6.61 8.07L8.07 8.07L8.07 6.61L6.61 6.61ZM44.72 6.61L43.26 6.61L43.26 8.07L44.72 8.07L44.72 6.61ZM44.72 59.38L44.72 57.92L43.26 57.92L43.26 59.38L44.72 59.38ZM6.61 59.38L8.07 59.38L8.07 57.92L6.61 57.92L6.61 59.38Z" fill="url(#paint_linear_1_136_0)" fill-opacity="1.000000" fill-rule="nonzero"/>
</svg>
