<svg width="14.000000" height="22.000000" viewBox="0 0 14 22" fill="none" xmlns="http://www.w3.org/2000/svg" xmlns:xlink="http://www.w3.org/1999/xlink">
	<desc>
			Created with Pixso.
	</desc>
	<defs>
		<linearGradient x1="-2.058616" y1="-0.543008" x2="13.838473" y2="22.806450" id="paint_linear_1_51_0" gradientUnits="userSpaceOnUse">
			<stop offset="0.270833" stop-color="#A3A3A3"/>
			<stop offset="0.412103" stop-color="#CCCCCC"/>
			<stop offset="0.551716" stop-color="#FFFFFF"/>
			<stop offset="0.677083" stop-color="#CCCCCC"/>
			<stop offset="0.833333" stop-color="#A3A3A3"/>
		</linearGradient>
	</defs>
	<path id="Vector" d="M11 0L3 0C1.34 0 0 1.34 0 3L0 19C0 20.65 1.34 22 3 22L11 22C12.66 22 14 20.65 14 19L14 3C14 1.34 12.66 0 11 0ZM12 17L2 17L2 3L12 3L12 17ZM9 20L5 20L5 19L9 19L9 20Z" fill="url(#paint_linear_1_51_0)" fill-opacity="1.000000" fill-rule="nonzero"/>
</svg>
