<svg width="85.160156" height="36.497070" viewBox="0 0 85.1602 36.4971" fill="none" xmlns="http://www.w3.org/2000/svg" xmlns:xlink="http://www.w3.org/1999/xlink">
	<desc>
			Created with Pixso.
	</desc>
	<defs>
		<linearGradient x1="-12.522301" y1="-0.900818" x2="84.177635" y2="37.834930" id="paint_linear_1_130_0" gradientUnits="userSpaceOnUse">
			<stop offset="0.270833" stop-color="#A3A3A3"/>
			<stop offset="0.412103" stop-color="#CCCCCC"/>
			<stop offset="0.551716" stop-color="#FFFFFF"/>
			<stop offset="0.677083" stop-color="#CCCCCC"/>
			<stop offset="0.833333" stop-color="#A3A3A3"/>
		</linearGradient>
	</defs>
	<path id="Vector" d="M42.18 0C29.32 0 12.24 2.76 3.95 14.23C3.81 14.44 3.57 14.59 3.32 14.64C1.13 15.1 0.06 16.46 0 17.26C0.05 18.74 2.08 18.91 3.13 18.92C3.47 18.92 3.81 19.11 3.99 19.4C9.67 28.33 24.35 33.6 44.21 33.6C44.44 33.6 44.67 33.68 44.85 33.83C48 36.59 52.46 37.94 54.32 34.18C54.44 33.91 54.7 33.71 54.98 33.64C67.98 30.5 73.66 28.56 81.56 20.29C81.8 20.03 82.19 19.92 82.54 20.01C84.19 20.44 84.94 19.83 85.1 19.27C85.47 17.71 83.81 17.12 82.85 16.69C82.63 16.59 82.45 16.4 82.35 16.18C74.27 1.89 56.38 0.06 42.19 0L42.18 0ZM11.4 11.23C27.63 13.27 32.12 14.44 46.36 25.72C47.69 26.63 49.41 26.29 51.21 24.7C59.35 18.55 64.67 15.34 74.93 13.27C75.45 13.16 76.03 13.54 76.14 14.07C76.24 14.6 75.87 15.17 75.34 15.28C65.39 17.29 60.53 20.2 52.54 26.23C49.85 28.54 47.13 28.88 45.1 27.35C30.96 16.15 27.34 15.28 11.14 13.24C10.61 13.2 10.17 12.67 10.21 12.14C10.26 11.4 10.82 11.21 11.4 11.23L11.4 11.23ZM78.24 19.38C78.24 19.86 77.87 20.3 77.4 20.39C73.45 21.39 73.01 21.88 70.91 25.05C70.73 25.34 70.4 25.53 70.06 25.53C64.09 25.53 62.51 26.36 58.5 29.39C58.08 29.78 57.33 29.71 56.99 29.25C56.65 28.79 56.8 28.05 57.29 27.76C61.27 24.76 63.78 23.59 69.58 23.52C71.54 20.66 72.98 19.4 76.9 18.41C77.65 18.22 78.22 18.79 78.24 19.38Z" fill="url(#paint_linear_1_130_0)" fill-opacity="1.000000" fill-rule="nonzero"/>
</svg>
