<svg width="25.918747" height="25.918701" viewBox="0 0 25.9187 25.9187" fill="none" xmlns="http://www.w3.org/2000/svg" xmlns:xlink="http://www.w3.org/1999/xlink">
	<desc>
			Created with Pixso.
	</desc>
	<defs>
		<linearGradient x1="-3.811199" y1="-0.639734" x2="25.619717" y2="26.868853" id="paint_linear_1_56_0" gradientUnits="userSpaceOnUse">
			<stop offset="0.270833" stop-color="#A3A3A3"/>
			<stop offset="0.412103" stop-color="#CCCCCC"/>
			<stop offset="0.551716" stop-color="#FFFFFF"/>
			<stop offset="0.677083" stop-color="#CCCCCC"/>
			<stop offset="0.833333" stop-color="#A3A3A3"/>
		</linearGradient>
	</defs>
	<path id="Vector" d="M25.91 2.77L25.91 23.14C25.91 24.67 24.67 25.91 23.14 25.91L8.93 25.91C9.49 24.97 10.22 23.6 10.51 22.48C10.69 21.82 11.4 19.1 11.4 19.1C11.86 19.99 13.21 20.74 14.66 20.74C18.94 20.74 22.03 16.8 22.03 11.9C22.03 7.21 18.2 3.7 13.27 3.7C7.13 3.7 3.88 7.81 3.88 12.29C3.88 14.38 4.99 16.97 6.76 17.8C7.04 17.92 7.17 17.87 7.24 17.61C7.28 17.41 7.53 16.44 7.63 16C7.67 15.85 7.65 15.73 7.53 15.59C6.95 14.88 6.47 13.57 6.47 12.35C6.47 9.22 8.85 6.19 12.89 6.19C16.38 6.19 18.83 8.56 18.83 11.97C18.83 15.81 16.89 18.47 14.36 18.47C12.97 18.47 11.92 17.32 12.25 15.9C12.65 14.21 13.43 12.39 13.43 11.17C13.43 8.1 9.06 8.52 9.06 12.61C9.06 13.87 9.48 14.72 9.48 14.72C7.67 22.41 7.39 22.51 7.77 25.87L7.9 25.91L2.77 25.91C1.24 25.91 0 24.67 0 23.14L0 2.77C0 1.24 1.24 0 2.77 0L23.14 0C24.67 0 25.91 1.24 25.91 2.77Z" fill="url(#paint_linear_1_56_0)" fill-opacity="1.000000" fill-rule="nonzero"/>
</svg>
