<svg width="85.000000" height="34.055878" viewBox="0 0 85 34.0559" fill="none" xmlns="http://www.w3.org/2000/svg" xmlns:xlink="http://www.w3.org/1999/xlink">
	<desc>
			Created with Pixso.
	</desc>
	<defs>
		<linearGradient x1="-12.498749" y1="-0.840576" x2="84.019318" y2="35.304276" id="paint_linear_1_133_0" gradientUnits="userSpaceOnUse">
			<stop offset="0.270833" stop-color="#A3A3A3"/>
			<stop offset="0.412103" stop-color="#CCCCCC"/>
			<stop offset="0.551716" stop-color="#FFFFFF"/>
			<stop offset="0.677083" stop-color="#CCCCCC"/>
			<stop offset="0.833333" stop-color="#A3A3A3"/>
		</linearGradient>
	</defs>
	<path id="Vector" d="M74.91 11.57C73.63 11.57 72.41 11.72 71.3 11.98C70.33 10.18 69.07 8.5 67.55 7.02L67.55 7.01C67.09 6.57 66.6 6.15 66.01 5.7C61.89 2.23 52.65 0 42.49 0C32.33 0 23.1 2.23 19 5.68C18.39 6.15 17.9 6.57 17.44 7.02C15.92 8.5 14.66 10.19 13.69 11.98C12.58 11.72 11.36 11.57 10.08 11.57C4.43 11.57 0 14.31 0 17.81C0 21.31 4.43 24.05 10.08 24.05C10.69 24.05 11.29 24.01 11.86 23.95C12.69 27.39 14.72 30.24 17.67 32.05C19.85 33.37 22.42 34.05 25.11 34.05C26.86 34.05 28.67 33.76 30.46 33.18C32.19 32.62 33.91 31.55 35.57 30.01C39.84 26.04 45.15 26.04 49.42 30.01C51.08 31.55 52.8 32.62 54.53 33.18C59.06 34.65 63.72 34.24 67.32 32.05C70.27 30.24 72.3 27.39 73.13 23.95C73.7 24.01 74.3 24.05 74.91 24.05C80.56 24.05 85 21.31 85 17.81C85 14.31 80.57 11.57 74.91 11.57L74.91 11.57ZM1.76 17.81C1.76 15.38 5.57 13.33 10.08 13.33C11.07 13.33 12.01 13.44 12.9 13.61C11.71 16.41 11.22 19.38 11.55 22.21C11.07 22.25 10.58 22.28 10.08 22.28C5.57 22.28 1.76 20.23 1.76 17.81ZM74.91 22.28C74.41 22.28 73.92 22.25 73.44 22.21C73.76 19.38 73.28 16.41 72.09 13.61C72.98 13.44 73.92 13.33 74.91 13.33C79.42 13.33 83.23 15.38 83.23 17.81C83.23 20.23 79.42 22.28 74.91 22.28Z" fill="url(#paint_linear_1_133_0)" fill-opacity="1.000000" fill-rule="nonzero"/>
</svg>
