<svg width="45.292542" height="44.971558" viewBox="0 0 45.2925 44.9716" fill="none" xmlns="http://www.w3.org/2000/svg" xmlns:xlink="http://www.w3.org/1999/xlink">
	<desc>
			Created with Pixso.
	</desc>
	<defs>
		<linearGradient x1="34.823044" y1="-0.122558" x2="43.266533" y2="5.147432" id="paint_linear_1_159_0" gradientUnits="userSpaceOnUse">
			<stop offset="0.270833" stop-color="#A3A3A3"/>
			<stop offset="0.412103" stop-color="#CCCCCC"/>
			<stop offset="0.551716" stop-color="#FFFFFF"/>
			<stop offset="0.677083" stop-color="#CCCCCC"/>
			<stop offset="0.833333" stop-color="#A3A3A3"/>
		</linearGradient>
		<linearGradient x1="35.553425" y1="19.159348" x2="42.712250" y2="24.102001" id="paint_linear_1_160_0" gradientUnits="userSpaceOnUse">
			<stop offset="0.270833" stop-color="#A3A3A3"/>
			<stop offset="0.412103" stop-color="#CCCCCC"/>
			<stop offset="0.551716" stop-color="#FFFFFF"/>
			<stop offset="0.677083" stop-color="#CCCCCC"/>
			<stop offset="0.833333" stop-color="#A3A3A3"/>
		</linearGradient>
		<linearGradient x1="35.739655" y1="10.556618" x2="43.106720" y2="15.418209" id="paint_linear_1_161_0" gradientUnits="userSpaceOnUse">
			<stop offset="0.270833" stop-color="#A3A3A3"/>
			<stop offset="0.412103" stop-color="#CCCCCC"/>
			<stop offset="0.551716" stop-color="#FFFFFF"/>
			<stop offset="0.677083" stop-color="#CCCCCC"/>
			<stop offset="0.833333" stop-color="#A3A3A3"/>
		</linearGradient>
		<linearGradient x1="20.669956" y1="24.490559" x2="24.674084" y2="26.277000" id="paint_linear_1_162_0" gradientUnits="userSpaceOnUse">
			<stop offset="0.270833" stop-color="#A3A3A3"/>
			<stop offset="0.412103" stop-color="#CCCCCC"/>
			<stop offset="0.551716" stop-color="#FFFFFF"/>
			<stop offset="0.677083" stop-color="#CCCCCC"/>
			<stop offset="0.833333" stop-color="#A3A3A3"/>
		</linearGradient>
		<linearGradient x1="-6.659996" y1="0.106815" x2="44.770004" y2="46.576557" id="paint_linear_1_163_0" gradientUnits="userSpaceOnUse">
			<stop offset="0.270833" stop-color="#A3A3A3"/>
			<stop offset="0.412103" stop-color="#CCCCCC"/>
			<stop offset="0.551716" stop-color="#FFFFFF"/>
			<stop offset="0.677083" stop-color="#CCCCCC"/>
			<stop offset="0.833333" stop-color="#A3A3A3"/>
		</linearGradient>
	</defs>
	<path id="Vector" d="M37.73 3.79C37.54 4.01 37.5 4.33 37.64 4.59C37.77 4.82 38.01 4.96 38.27 4.96C38.3 4.96 38.33 4.96 38.36 4.95L42.74 4.35C43.12 4.3 43.39 3.94 43.34 3.55C43.29 3.16 42.92 2.89 42.54 2.95L40.17 3.27C40.9 2.56 41.68 1.89 42.49 1.27C42.73 1.08 42.82 0.77 42.73 0.49C42.64 0.2 42.37 0 42.07 0C40.15 -0.04 38.26 0.21 36.42 0.74C36.05 0.85 35.83 1.25 35.94 1.62C36.05 2 36.44 2.21 36.82 2.1C37.86 1.8 38.93 1.6 40 1.49C39.2 2.21 38.44 2.98 37.73 3.79L37.73 3.79Z" fill="url(#paint_linear_1_159_0)" fill-opacity="1.000000" fill-rule="nonzero"/>
	<path id="Vector" d="M42.03 19.27C40.32 19.37 38.62 19.67 36.98 20.18C36.6 20.29 36.39 20.68 36.51 21.06C36.62 21.43 37.02 21.64 37.39 21.53C38.12 21.31 38.86 21.13 39.61 20.99L37.45 22.66C37.19 22.85 37.1 23.19 37.23 23.49C37.34 23.76 37.6 23.93 37.88 23.93C37.91 23.93 37.94 23.92 37.97 23.92L41.19 23.5C41.58 23.45 41.85 23.1 41.8 22.71C41.75 22.32 41.39 22.05 41.01 22.1L40.38 22.18L42.5 20.54C42.75 20.35 42.84 20.02 42.73 19.73C42.63 19.44 42.33 19.25 42.03 19.27L42.03 19.27Z" fill="url(#paint_linear_1_160_0)" fill-opacity="1.000000" fill-rule="nonzero"/>
	<path id="Vector" d="M37.64 12.8C38.57 12.45 39.55 12.23 40.53 12.13C39.9 12.73 39.31 13.4 38.86 14.19C38.73 14.42 38.74 14.71 38.88 14.93C39.02 15.13 39.24 15.25 39.47 15.25C39.5 15.25 39.53 15.24 39.56 15.24L41.99 14.95C42.38 14.9 42.66 14.55 42.61 14.16C42.57 13.78 42.21 13.5 41.83 13.55L41.03 13.64C41.6 13.03 42.26 12.48 42.92 11.95C43.14 11.77 43.23 11.47 43.14 11.19C43.06 10.91 42.81 10.72 42.52 10.7C40.71 10.57 38.85 10.84 37.15 11.47C36.78 11.61 36.6 12.02 36.73 12.38C36.87 12.75 37.28 12.93 37.64 12.8L37.64 12.8Z" fill="url(#paint_linear_1_161_0)" fill-opacity="1.000000" fill-rule="nonzero"/>
	<path id="Vector" d="M21.79 26.16C22.03 26.19 22.27 26.21 22.5 26.21C23.1 26.21 23.69 26.11 24.25 25.9C24.61 25.76 24.8 25.36 24.67 24.99C24.53 24.62 24.12 24.44 23.76 24.57C23.19 24.78 22.58 24.84 21.99 24.76C21.6 24.7 21.25 24.97 21.19 25.36C21.13 25.75 21.4 26.1 21.79 26.16L21.79 26.16Z" fill="url(#paint_linear_1_162_0)" fill-opacity="1.000000" fill-rule="nonzero"/>
	<path id="Vector" d="M4.94 31.51C4.95 31.58 4.96 31.64 4.98 31.71C5.11 32.21 5.28 32.53 5.4 32.8C5.56 33.11 5.64 33.28 5.66 33.67C5.68 34.23 5.52 34.57 5.34 34.95C5.14 35.37 4.92 35.84 4.95 36.51C5.02 37.63 5.72 38.49 6.37 39.04C5.6 40.16 5.03 41.56 4.67 43.25C4.59 43.68 4.69 44.11 4.97 44.45C5.24 44.78 5.63 44.97 6.06 44.97L39.23 44.97C39.65 44.97 40.05 44.78 40.32 44.45C40.59 44.11 40.7 43.68 40.61 43.25C40.07 40.67 39.03 38.77 37.53 37.57C37.59 36.54 37.79 35.56 38.15 34.64C38.5 33.74 38.84 33.32 39.13 32.95C39.39 32.62 39.67 32.27 39.85 31.71C39.89 31.57 39.93 31.44 39.95 31.31C41.18 31.29 43.08 31.16 44.18 29.85C44.99 28.89 45.1 27.68 45.15 26.41C45.36 20.67 45.33 14.9 45.05 9.27C44.98 7.74 44.47 6.71 43.52 6.21C42.97 5.92 42.37 5.83 41.79 5.76C38.64 5.38 35.4 5.13 31.89 5C31.84 4.94 31.78 4.89 31.72 4.83C29.97 3.1 28.59 1.74 26.39 1.31C25.41 1.12 24.38 1.14 23.34 1.37C22.82 1.49 22.34 1.51 21.87 1.43C20.6 1.25 19.35 1.3 18.17 1.59C15.58 2.21 14 3.76 13.33 4.42C13.16 4.58 12.96 4.79 12.76 5C11.3 5 9.84 4.98 8.37 4.97L6.87 4.95C4.9 4.93 2.51 5.13 1.4 6.93C0.84 7.84 0.8 8.89 0.76 9.74C0.67 11.68 0.55 13.65 0.44 15.56C0.24 18.7 0.04 21.94 0 25.15L0 27.29C0.01 27.94 0.08 28.9 0.54 29.65C1.45 31.13 3.28 31.46 4.93 31.51L4.94 31.51ZM14.21 19.24C14.24 19.34 14.27 19.44 14.31 19.54C14.39 19.76 14.5 19.97 14.62 20.19C14.65 20.59 14.7 20.98 14.75 21.35L14.77 21.57C14.81 21.91 14.86 22.24 14.9 22.56C14.72 22.56 14.55 22.53 14.4 22.46C13.61 22.09 13.49 20.72 13.44 20.13C13.43 19.98 13.41 19.74 13.4 19.49C13.67 19.44 13.94 19.35 14.21 19.24L14.21 19.24ZM12.51 18.07C12.43 18.05 12.37 18.03 12.32 18.01C12.34 17.98 12.38 17.96 12.42 17.92C12.84 17.57 13.42 17.27 14.11 17.01C14.06 17.25 14.02 17.51 14.02 17.78C13.61 18 13.05 18.22 12.51 18.07L12.51 18.07ZM31.89 19.48C31.88 19.74 31.86 19.98 31.85 20.14C31.8 20.72 31.68 22.09 30.89 22.46C30.83 22.49 30.77 22.49 30.7 22.51C30.79 21.75 30.81 20.99 30.8 20.24C30.99 19.96 31.15 19.65 31.26 19.32C31.45 19.39 31.66 19.44 31.89 19.48L31.89 19.48ZM31.44 17.1C32.14 17.39 32.59 17.69 32.87 17.92C32.91 17.95 32.95 17.98 32.98 18.01C32.92 18.03 32.86 18.05 32.78 18.07C32.33 18.19 31.85 18.06 31.5 17.89C31.5 17.63 31.48 17.37 31.44 17.1L31.44 17.1ZM15.51 31.46L18.38 31.45C18.38 31.83 18.36 32.21 18.33 32.6C17.42 33.1 16.51 33.56 15.6 34C15.67 32.91 15.59 32.11 15.51 31.46L15.51 31.46ZM17.85 22.54C17.97 22.55 18.09 22.56 18.21 22.56C19.26 22.56 19.98 22.03 20.62 21.55C20.91 21.33 21.19 21.13 21.49 20.98C21.36 21.29 21.25 21.62 21.23 21.99C21.17 22.76 21.53 23.46 22.14 23.77C22.24 23.83 22.35 23.85 22.46 23.85C22.72 23.85 22.97 23.71 23.09 23.46C23.27 23.12 23.13 22.69 22.78 22.51C22.7 22.47 22.63 22.29 22.64 22.09C22.66 21.8 22.81 21.49 22.98 21.11C23.03 21.01 23.08 20.9 23.12 20.8C23.42 20.88 23.67 21.03 23.96 21.22C24.48 21.56 25.13 21.99 26.29 22.08C26.79 22.11 28.14 22.15 29.36 21.52C29.27 23.33 28.89 24.88 27.78 26.28C26.21 28.27 24.49 28.83 23.33 28.94C20.17 29.24 18 26.68 17.76 26.39C16.71 25.1 16.47 23.74 16.25 21.95C16.72 22.25 17.26 22.47 17.85 22.54L17.85 22.54ZM22.02 13.48C22.19 13.27 22.35 13.05 22.52 12.81C22.85 12.33 23.15 11.82 23.42 11.29C24.68 12.22 26.21 12.79 27.75 12.86C27.79 12.87 27.85 12.87 27.9 12.88L27.9 12.88C27.95 13.23 28.02 13.57 28.08 13.91C26.28 13.59 24.46 13.43 22.63 13.45C22.43 13.46 22.22 13.48 22.02 13.48L22.02 13.48ZM15.9 27.98C16.06 27.64 16.26 27.33 16.48 27.03C16.54 27.11 16.59 27.2 16.66 27.28C16.85 27.51 17.36 28.1 18.15 28.71C18.23 29.15 18.28 29.59 18.32 30.03L15.38 30.05C15.38 29.69 15.42 29.32 15.54 28.87C15.57 28.77 15.69 28.41 15.9 27.98ZM15.43 35.65C16.74 35.04 18.03 34.39 19.35 33.65C19.55 33.54 19.69 33.34 19.71 33.11C19.82 31.95 19.82 30.8 19.71 29.66C20.58 30.08 21.62 30.38 22.8 30.38C23.02 30.38 23.24 30.37 23.46 30.35C24.07 30.29 24.79 30.14 25.57 29.8C25.47 30.9 25.47 32.01 25.58 33.1C25.6 33.34 25.74 33.54 25.94 33.65C27.51 34.53 29.07 35.31 30.67 36.02C28.73 36.71 26.79 37.17 24.89 37.38C21.57 37.77 18.27 37.41 15.31 36.35C15.36 36.12 15.4 35.88 15.43 35.65L15.43 35.65ZM41.62 7.16C42.08 7.22 42.53 7.29 42.86 7.46C43.33 7.71 43.6 8.34 43.64 9.34C43.91 14.93 43.95 20.66 43.74 26.36C43.7 27.41 43.62 28.32 43.1 28.94C42.43 29.74 41.14 29.87 39.91 29.9C39.61 28.61 38.62 27.43 37.65 26.28C36.38 24.78 35.19 23.36 35.53 21.86C35.61 21.49 35.83 20.9 36.06 20.28C36.69 18.55 37.13 17.26 36.99 16.35C36.87 15.63 36.67 15.22 36.44 14.74C36.22 14.29 35.95 13.72 35.6 12.64C35.26 11.55 35.15 10.9 35.05 10.33C34.95 9.69 34.85 9.14 34.46 8.29C34.13 7.58 33.76 7.02 33.3 6.48C36.21 6.62 38.96 6.84 41.62 7.16L41.62 7.16ZM14.31 5.44C14.96 4.81 16.29 3.5 18.5 2.97C19.51 2.72 20.58 2.68 21.66 2.84C22.29 2.94 22.97 2.91 23.66 2.76C24.5 2.57 25.33 2.55 26.13 2.7C27.91 3.05 29.09 4.22 30.76 5.87C31.97 7.06 32.63 7.72 33.18 8.89C33.49 9.56 33.56 9.96 33.66 10.57C33.76 11.15 33.88 11.88 34.26 13.06C34.63 14.25 34.94 14.89 35.17 15.35C35.39 15.81 35.51 16.06 35.59 16.57C35.69 17.18 35.11 18.75 34.73 19.79C34.47 20.49 34.25 21.09 34.15 21.55C33.65 23.73 35.2 25.57 36.57 27.19C37.78 28.63 38.92 29.98 38.5 31.27C38.4 31.59 38.25 31.78 38.02 32.07C37.7 32.47 37.27 33.02 36.83 34.12C36.51 34.95 36.3 35.82 36.18 36.73C35.8 36.55 35.38 36.39 34.85 36.2C34.17 35.94 33.32 35.63 32.12 35.11C30.36 34.36 28.67 33.54 26.95 32.6C26.86 31.37 26.92 30.14 27.1 28.92C27.7 28.47 28.31 27.89 28.9 27.15C29.7 26.14 30.16 25.07 30.44 23.97C30.81 23.97 31.17 23.89 31.5 23.74C33.01 23.02 33.18 21.09 33.26 20.26C33.28 19.99 33.3 19.69 33.3 19.38C34.02 19.15 34.44 18.78 34.52 18.27C34.64 17.54 34.03 17.04 33.77 16.83C33.08 16.25 32.12 15.78 30.95 15.43C30.82 15.16 30.68 14.91 30.52 14.65C30.42 14.5 30.28 14.39 30.1 14.35C29.93 14.3 29.74 14.27 29.57 14.23C29.47 13.7 29.38 13.17 29.28 12.6C29.25 12.43 29.19 12.17 29 11.93C28.65 11.5 28.14 11.47 27.82 11.45C26.46 11.38 25.1 10.84 24.02 9.97C24.32 9.21 24.57 8.43 24.75 7.61C24.83 7.23 24.59 6.85 24.21 6.76C23.83 6.68 23.45 6.92 23.37 7.3C22.99 9.04 22.31 10.62 21.35 12.01C20.89 12.67 20.44 13.19 19.96 13.64C18.45 13.8 16.96 14.08 15.5 14.49C15.36 14.52 15.23 14.61 15.14 14.72C15.12 14.74 14.95 14.96 14.74 15.31C13.39 15.68 12.3 16.18 11.52 16.83C11.28 17.02 10.65 17.54 10.77 18.27C10.85 18.78 11.27 19.15 11.99 19.38C11.98 19.69 12 19.99 12.03 20.26C12.1 21.09 12.27 23.02 13.79 23.74C14.13 23.9 14.5 23.98 14.88 23.98C14.97 23.98 15.05 23.96 15.13 23.95C15.26 24.57 15.44 25.15 15.7 25.72C15.28 26.22 14.91 26.77 14.63 27.35C14.38 27.87 14.23 28.32 14.18 28.51C13.85 29.72 13.96 30.55 14.08 31.44C14.17 32.18 14.28 33.01 14.15 34.28C14.13 34.57 14.1 34.84 14.07 35.1C13.91 36.49 13.68 37.39 12.95 38.08C11.95 39.05 10.26 39.37 8.84 38.87C8.49 38.75 8.11 38.55 7.76 38.32C6.91 37.75 6.4 37.07 6.37 36.43C6.35 36.12 6.45 35.9 6.61 35.56C6.83 35.1 7.11 34.53 7.07 33.61C7.05 32.92 6.86 32.53 6.67 32.16C6.56 31.94 6.44 31.7 6.34 31.33C5.85 29.55 6.54 27.78 7 26.88C7.39 26.1 7.71 25.82 8.05 25.53C8.43 25.21 8.85 24.85 9.16 23.96C9.55 22.84 9.37 22 9.21 21.26C9.06 20.58 8.92 19.93 9.17 18.96C9.33 18.39 9.5 18.13 9.73 17.78C9.97 17.43 10.26 17 10.57 16.2C11.07 14.89 11.05 14 11.04 13.14C11.03 12.61 11.01 12.06 11.12 11.35C11.58 8.35 13.5 6.22 14.32 5.43L14.31 5.44ZM1.41 25.16C1.46 21.99 1.66 18.77 1.85 15.65C1.97 13.74 2.09 11.76 2.18 9.8C2.21 8.93 2.27 8.23 2.61 7.67C3.34 6.49 5.16 6.35 6.85 6.37L8.36 6.39C9.45 6.4 10.55 6.41 11.65 6.41C10.81 7.63 10.01 9.21 9.72 11.15C9.59 11.97 9.61 12.61 9.62 13.18C9.64 14 9.65 14.65 9.24 15.7C9 16.34 8.77 16.68 8.56 17C8.29 17.39 8.02 17.8 7.8 18.6C7.46 19.9 7.66 20.82 7.82 21.56C7.97 22.23 8.08 22.76 7.82 23.51C7.64 24.03 7.46 24.18 7.13 24.46C6.74 24.8 6.25 25.21 5.74 26.25C5.32 27.06 4.75 28.48 4.76 30.09C3.54 30.03 2.29 29.79 1.75 28.91C1.44 28.4 1.42 27.54 1.41 27.27L1.41 25.16L1.41 25.16Z" fill="url(#paint_linear_1_163_0)" fill-opacity="1.000000" fill-rule="nonzero"/>
</svg>
