<svg width="45.001160" height="46.000000" viewBox="0 0 45.0012 46" fill="none" xmlns="http://www.w3.org/2000/svg" xmlns:xlink="http://www.w3.org/1999/xlink">
	<desc>
			Created with Pixso.
	</desc>
	<defs>
		<linearGradient x1="2.559119" y1="23.827225" x2="5.965592" y2="31.256641" id="paint_linear_1_173_0" gradientUnits="userSpaceOnUse">
			<stop offset="0.270833" stop-color="#A3A3A3"/>
			<stop offset="0.412103" stop-color="#CCCCCC"/>
			<stop offset="0.551716" stop-color="#FFFFFF"/>
			<stop offset="0.677083" stop-color="#CCCCCC"/>
			<stop offset="0.833333" stop-color="#A3A3A3"/>
		</linearGradient>
		<linearGradient x1="32.412617" y1="22.901272" x2="36.954655" y2="27.146637" id="paint_linear_1_174_0" gradientUnits="userSpaceOnUse">
			<stop offset="0.270833" stop-color="#A3A3A3"/>
			<stop offset="0.412103" stop-color="#CCCCCC"/>
			<stop offset="0.551716" stop-color="#FFFFFF"/>
			<stop offset="0.677083" stop-color="#CCCCCC"/>
			<stop offset="0.833333" stop-color="#A3A3A3"/>
		</linearGradient>
		<linearGradient x1="-6.028584" y1="7.383064" x2="40.526924" y2="33.916847" id="paint_linear_1_175_0" gradientUnits="userSpaceOnUse">
			<stop offset="0.270833" stop-color="#A3A3A3"/>
			<stop offset="0.412103" stop-color="#CCCCCC"/>
			<stop offset="0.551716" stop-color="#FFFFFF"/>
			<stop offset="0.677083" stop-color="#CCCCCC"/>
			<stop offset="0.833333" stop-color="#A3A3A3"/>
		</linearGradient>
		<linearGradient x1="33.559097" y1="-0.172774" x2="36.965736" y2="7.256547" id="paint_linear_1_176_0" gradientUnits="userSpaceOnUse">
			<stop offset="0.270833" stop-color="#A3A3A3"/>
			<stop offset="0.412103" stop-color="#CCCCCC"/>
			<stop offset="0.551716" stop-color="#FFFFFF"/>
			<stop offset="0.677083" stop-color="#CCCCCC"/>
			<stop offset="0.833333" stop-color="#A3A3A3"/>
		</linearGradient>
		<linearGradient x1="25.559422" y1="3.925954" x2="28.965900" y2="7.109929" id="paint_linear_1_177_0" gradientUnits="userSpaceOnUse">
			<stop offset="0.270833" stop-color="#A3A3A3"/>
			<stop offset="0.412103" stop-color="#CCCCCC"/>
			<stop offset="0.551716" stop-color="#FFFFFF"/>
			<stop offset="0.677083" stop-color="#CCCCCC"/>
			<stop offset="0.833333" stop-color="#A3A3A3"/>
		</linearGradient>
		<linearGradient x1="4.088818" y1="15.925949" x2="18.850697" y2="19.109924" id="paint_linear_1_178_0" gradientUnits="userSpaceOnUse">
			<stop offset="0.270833" stop-color="#A3A3A3"/>
			<stop offset="0.412103" stop-color="#CCCCCC"/>
			<stop offset="0.551716" stop-color="#FFFFFF"/>
			<stop offset="0.677083" stop-color="#CCCCCC"/>
			<stop offset="0.833333" stop-color="#A3A3A3"/>
		</linearGradient>
		<linearGradient x1="-1.322796" y1="19.925957" x2="8.896836" y2="23.109936" id="paint_linear_1_179_0" gradientUnits="userSpaceOnUse">
			<stop offset="0.270833" stop-color="#A3A3A3"/>
			<stop offset="0.412103" stop-color="#CCCCCC"/>
			<stop offset="0.551716" stop-color="#FFFFFF"/>
			<stop offset="0.677083" stop-color="#CCCCCC"/>
			<stop offset="0.833333" stop-color="#A3A3A3"/>
		</linearGradient>
		<linearGradient x1="-2.415895" y1="38.925949" x2="16.240194" y2="42.109940" id="paint_linear_1_180_0" gradientUnits="userSpaceOnUse">
			<stop offset="0.270833" stop-color="#A3A3A3"/>
			<stop offset="0.412103" stop-color="#CCCCCC"/>
			<stop offset="0.551716" stop-color="#FFFFFF"/>
			<stop offset="0.677083" stop-color="#CCCCCC"/>
			<stop offset="0.833333" stop-color="#A3A3A3"/>
		</linearGradient>
		<linearGradient x1="41.559959" y1="10.876587" x2="44.966545" y2="16.183344" id="paint_linear_1_181_0" gradientUnits="userSpaceOnUse">
			<stop offset="0.270833" stop-color="#A3A3A3"/>
			<stop offset="0.412103" stop-color="#CCCCCC"/>
			<stop offset="0.551716" stop-color="#FFFFFF"/>
			<stop offset="0.677083" stop-color="#CCCCCC"/>
			<stop offset="0.833333" stop-color="#A3A3A3"/>
		</linearGradient>
		<linearGradient x1="-3.627171" y1="42.925903" x2="42.224251" y2="46.109863" id="paint_linear_1_182_0" gradientUnits="userSpaceOnUse">
			<stop offset="0.270833" stop-color="#A3A3A3"/>
			<stop offset="0.412103" stop-color="#CCCCCC"/>
			<stop offset="0.551716" stop-color="#FFFFFF"/>
			<stop offset="0.677083" stop-color="#CCCCCC"/>
			<stop offset="0.833333" stop-color="#A3A3A3"/>
		</linearGradient>
		<linearGradient x1="-6.617081" y1="33.802307" x2="44.481491" y2="42.293091" id="paint_linear_1_183_0" gradientUnits="userSpaceOnUse">
			<stop offset="0.270833" stop-color="#A3A3A3"/>
			<stop offset="0.412103" stop-color="#CCCCCC"/>
			<stop offset="0.551716" stop-color="#FFFFFF"/>
			<stop offset="0.677083" stop-color="#CCCCCC"/>
			<stop offset="0.833333" stop-color="#A3A3A3"/>
		</linearGradient>
		<linearGradient x1="41.559959" y1="20.876101" x2="44.966541" y2="26.182858" id="paint_linear_1_184_0" gradientUnits="userSpaceOnUse">
			<stop offset="0.270833" stop-color="#A3A3A3"/>
			<stop offset="0.412103" stop-color="#CCCCCC"/>
			<stop offset="0.551716" stop-color="#FFFFFF"/>
			<stop offset="0.677083" stop-color="#CCCCCC"/>
			<stop offset="0.833333" stop-color="#A3A3A3"/>
		</linearGradient>
	</defs>
	<path id="Vector" d="M4.5 31C4.78 31 5 30.78 5 30.5L5 26L6 26L6 24L3 24L3 26L4 26L4 30.5C4 30.78 4.22 31 4.5 31L4.5 31Z" fill="url(#paint_linear_1_173_0)" fill-opacity="1.000000" fill-rule="nonzero"/>
	<path id="Vector" d="M35 27C36.1 27 37 26.1 37 25C37 23.9 36.1 23 35 23C33.9 23 33 23.9 33 25C33 26.1 33.9 27 35 27Z" fill="url(#paint_linear_1_174_0)" fill-opacity="1.000000" fill-rule="nonzero"/>
	<path id="Vector" d="M5 15.5C5 15.22 5.22 15 5.5 15L19.49 15C19.77 15 19.99 15.22 19.99 15.5L19.99 19L28.49 19C28.77 19 28.99 19.21 28.99 19.5L28.99 33L40.99 33L40.99 8L2.5 8C1.12 8 0 9.12 0 10.5L0 19L5 19L5 15.5ZM34.99 22C36.64 22 37.99 23.35 37.99 25C37.99 26.65 36.64 28 34.99 28C33.34 28 31.99 26.65 31.99 25C31.99 23.35 33.34 22 34.99 22Z" fill="url(#paint_linear_1_175_0)" fill-opacity="1.000000" fill-rule="nonzero"/>
	<path id="Vector" d="M37 4L36 4L36 0.5C36 0.21 35.78 0 35.5 0C35.22 0 35 0.21 35 0.5L35 4L34 4L34 7L37 7L37 4Z" fill="url(#paint_linear_1_176_0)" fill-opacity="1.000000" fill-rule="nonzero"/>
	<path id="Vector" d="M26 4L29 4L29 7L26 7L26 4Z" fill="url(#paint_linear_1_177_0)" fill-opacity="1.000000" fill-rule="nonzero"/>
	<path id="Vector" d="M9.5 19L19 19L19 16L6 16L6 19L9.5 19Z" fill="url(#paint_linear_1_178_0)" fill-opacity="1.000000" fill-rule="nonzero"/>
	<path id="Vector" d="M6.5 23L9 23L9 20L0 20L0 23L6.5 23Z" fill="url(#paint_linear_1_179_0)" fill-opacity="1.000000" fill-rule="nonzero"/>
	<path id="Vector" d="M9.5 39L0 39L0 42L16.42 42C14.63 40.11 12.11 39 9.49 39L9.5 39Z" fill="url(#paint_linear_1_180_0)" fill-opacity="1.000000" fill-rule="nonzero"/>
	<path id="Vector" d="M44 11L42 11L42 16L44 16C44.55 16 45 15.55 45 15L45 12C45 11.45 44.55 11 44 11Z" fill="url(#paint_linear_1_181_0)" fill-opacity="1.000000" fill-rule="nonzero"/>
	<path id="Vector" d="M2.31 43L3.81 46L41.19 46L42.69 43L2.31 43Z" fill="url(#paint_linear_1_182_0)" fill-opacity="1.000000" fill-rule="nonzero"/>
	<path id="Vector" d="M28.5 33.99L0 33.99L0 37.99L9.5 37.99C12.7 37.99 15.77 39.48 17.75 41.99L45 41.99L45 33.99L28.5 33.99Z" fill="url(#paint_linear_1_183_0)" fill-opacity="1.000000" fill-rule="nonzero"/>
	<path id="Vector" d="M44 20.99L42 20.99L42 25.99L44 25.99C44.55 25.99 45 25.54 45 24.99L45 21.99C45 21.44 44.55 20.99 44 20.99Z" fill="url(#paint_linear_1_184_0)" fill-opacity="1.000000" fill-rule="nonzero"/>
</svg>
