<svg width="17.485352" height="15.559326" viewBox="0 0 17.4854 15.5593" fill="none" xmlns="http://www.w3.org/2000/svg" xmlns:xlink="http://www.w3.org/1999/xlink">
	<desc>
			Created with Pixso.
	</desc>
	<defs/>
	<path id="shopping-cart" d="M14.07 12.64C13.24 12.64 12.64 13.31 12.64 14.1C12.64 14.92 13.28 15.55 14.07 15.55C14.83 15.55 15.49 14.92 15.49 14.1C15.49 13.31 14.89 12.64 14.07 12.64ZM5.31 12.64C4.49 12.64 3.88 13.31 3.88 14.1C3.88 14.92 4.52 15.55 5.31 15.55C6.07 15.55 6.74 14.92 6.74 14.1C6.74 13.31 6.13 12.64 5.31 12.64ZM17.29 1.36C17.1 1.12 16.83 0.97 16.5 0.97L3.67 0.97L3.61 0.6C3.55 0.27 3.25 0 2.91 0L0.69 0C0.3 0 0 0.33 0 0.72C0 1.09 0.3 1.45 0.69 1.45L2.27 1.45L4.1 11.09C4.19 11.42 4.49 11.66 4.86 11.66L14.83 11.66C15.22 11.66 15.55 11.36 15.55 10.97C15.55 10.54 15.22 10.21 14.83 10.21L5.43 10.21L5.16 8.75L14.86 8.75C15.28 8.75 15.65 8.47 15.77 8.05L17.44 2.24C17.53 1.94 17.47 1.61 17.29 1.36Z" fill="#FFFFFF" fill-opacity="1.000000" fill-rule="nonzero"/>
</svg>
