<svg xmlns="http://www.w3.org/2000/svg" width="24" height="25" viewBox="0 0 24 25" fill="none">
  <path fill-rule="evenodd" clip-rule="evenodd" d="M1.25 7.5C1.25 4.87665 3.37665 2.75 6 2.75H18C20.6234 2.75 22.75 4.87665 22.75 7.5V8.5C22.75 9.50246 21.9422 10.1381 21.2635 10.3731C20.3815 10.6784 19.75 11.5164 19.75 12.5C19.75 13.4836 20.3815 14.3216 21.2635 14.6269C21.9422 14.8619 22.75 15.4975 22.75 16.5V17.5C22.75 20.1234 20.6234 22.25 18 22.25H6C3.37665 22.25 1.25 20.1234 1.25 17.5V16.5C1.25 15.4975 2.05785 14.8619 2.73652 14.6269C3.61845 14.3216 4.25 13.4836 4.25 12.5C4.25 11.5164 3.61845 10.6784 2.73652 10.3731L2.96866 9.7026L2.73652 10.3731C2.05785 10.1381 1.25 9.50246 1.25 8.5V7.5ZM6 4.25C4.20507 4.25 2.75 5.70507 2.75 7.5V8.5C2.75 8.55587 2.77081 8.62917 2.85172 8.71871C2.9366 8.81265 3.06974 8.90111 3.22727 8.95565C4.69462 9.46367 5.75 10.8576 5.75 12.5C5.75 14.1424 4.69461 15.5363 3.22727 16.0444C3.06974 16.0989 2.9366 16.1873 2.85172 16.2813C2.77081 16.3708 2.75 16.4441 2.75 16.5V17.5C2.75 19.2949 4.20507 20.75 6 20.75H18C19.7949 20.75 21.25 19.2949 21.25 17.5V16.5C21.25 16.4441 21.2292 16.3708 21.1483 16.2813C21.0634 16.1873 20.9303 16.0989 20.7727 16.0444C19.3054 15.5363 18.25 14.1424 18.25 12.5C18.25 10.8576 19.3054 9.46367 20.7727 8.95565C20.9303 8.90111 21.0634 8.81265 21.1483 8.71871C21.2292 8.62917 21.25 8.55587 21.25 8.5V7.5C21.25 5.70507 19.7949 4.25 18 4.25H6ZM9 9.25C8.86193 9.25 8.75 9.36193 8.75 9.5C8.75 9.63807 8.86193 9.75 9 9.75C9.13807 9.75 9.25 9.63807 9.25 9.5C9.25 9.36193 9.13807 9.25 9 9.25ZM7.25 9.5C7.25 8.5335 8.0335 7.75 9 7.75C9.9665 7.75 10.75 8.5335 10.75 9.5C10.75 10.4665 9.9665 11.25 9 11.25C8.0335 11.25 7.25 10.4665 7.25 9.5ZM14.4697 8.96967C14.7626 8.67678 15.2374 8.67678 15.5303 8.96967C15.8232 9.26256 15.8232 9.73744 15.5303 10.0303L9.53033 16.0303C9.23744 16.3232 8.76256 16.3232 8.46967 16.0303C8.17678 15.7374 8.17678 15.2626 8.46967 14.9697L14.4697 8.96967ZM15 15.25C14.8619 15.25 14.75 15.3619 14.75 15.5C14.75 15.6381 14.8619 15.75 15 15.75C15.1381 15.75 15.25 15.6381 15.25 15.5C15.25 15.3619 15.1381 15.25 15 15.25ZM13.25 15.5C13.25 14.5335 14.0335 13.75 15 13.75C15.9665 13.75 16.75 14.5335 16.75 15.5C16.75 16.4665 15.9665 17.25 15 17.25C14.0335 17.25 13.25 16.4665 13.25 15.5Z" fill="#141718"/>
</svg>